<svg width="32" height="20" viewBox="0 0 32 20" fill="none" xmlns="http://www.w3.org/2000/svg">
<path d="M27.5001 0.416504H4.16675C2.09568 0.416504 0.416748 2.09544 0.416748 4.1665V15.8332C0.416748 17.9042 2.09568 19.5832 4.16675 19.5832H27.5001C29.5711 19.5832 31.2501 17.9042 31.2501 15.8332V4.1665C31.2501 2.09544 29.5711 0.416504 27.5001 0.416504Z" fill="white"/>
<path d="M27.5 0.833333C28.3841 0.833333 29.2319 1.18452 29.857 1.80964C30.4821 2.43477 30.8333 3.28261 30.8333 4.16667V15.8333C30.8333 16.7174 30.4821 17.5652 29.857 18.1904C29.2319 18.8155 28.3841 19.1667 27.5 19.1667H4.16667C3.28261 19.1667 2.43477 18.8155 1.80964 18.1904C1.18452 17.5652 0.833333 16.7174 0.833333 15.8333V4.16667C0.833333 3.28261 1.18452 2.43477 1.80964 1.80964C2.43477 1.18452 3.28261 0.833333 4.16667 0.833333H27.5ZM27.5 0H4.16667C3.0616 0 2.00179 0.438987 1.22039 1.22039C0.438987 2.00179 0 3.0616 0 4.16667L0 15.8333C0 16.9384 0.438987 17.9982 1.22039 18.7796C2.00179 19.561 3.0616 20 4.16667 20H27.5C28.6051 20 29.6649 19.561 30.4463 18.7796C31.2277 17.9982 31.6667 16.9384 31.6667 15.8333V4.16667C31.6667 3.0616 31.2277 2.00179 30.4463 1.22039C29.6649 0.438987 28.6051 0 27.5 0Z" fill="#F4F4F4"/>
<path d="M9.71674 7.05817C9.6051 7.20278 9.46084 7.31893 9.29573 7.39714C9.13063 7.47535 8.94936 7.51339 8.76674 7.50817C8.74645 7.14815 8.86926 6.79471 9.10841 6.52484C9.34751 6.24741 9.68528 6.07404 10.0501 6.0415C10.0744 6.41071 9.95491 6.77501 9.71674 7.05817ZM10.0417 7.58317C9.51674 7.58317 9.07508 7.88317 8.82508 7.88317C8.57508 7.88317 8.19174 7.59984 7.77508 7.60817C7.50555 7.61349 7.24214 7.6894 7.0111 7.82831C6.78007 7.96722 6.5895 8.16428 6.45841 8.39984C6.2474 8.92462 6.17341 9.49447 6.24338 10.0557C6.31336 10.617 6.52501 11.1513 6.85841 11.6082C7.12508 11.9998 7.45008 12.4415 7.86674 12.4415C8.28341 12.4415 8.42508 12.1832 8.90841 12.1832C9.39174 12.1832 9.53341 12.4415 9.95841 12.4332C10.3834 12.4248 10.6667 12.0415 10.9334 11.6498C11.1252 11.3738 11.2741 11.0704 11.3751 10.7498C11.1266 10.6376 10.9158 10.456 10.768 10.2269C10.6202 9.99774 10.5416 9.73083 10.5417 9.45817C10.5455 9.21568 10.61 8.97802 10.7294 8.76692C10.8488 8.55582 11.0192 8.37803 11.2251 8.24984C11.0932 8.06091 10.9191 7.90531 10.7165 7.79538C10.514 7.68544 10.2887 7.6242 10.0584 7.6165L10.0417 7.58317ZM13.0834 6.52484V12.3582H14.0001V10.3498H15.2584C15.5172 10.364 15.776 10.3239 16.0184 10.2321C16.2607 10.1403 16.4812 9.99881 16.6656 9.81674C16.85 9.63467 16.9943 9.41605 17.0892 9.1749C17.1842 8.93376 17.2276 8.67543 17.2167 8.4165C17.2299 8.16024 17.1891 7.90406 17.0971 7.66454C17.005 7.42503 16.8636 7.20751 16.6822 7.02606C16.5007 6.84461 16.2832 6.70327 16.0437 6.61119C15.8042 6.51911 15.548 6.47834 15.2917 6.4915L13.0834 6.52484ZM14.0001 7.2915H15.0001C15.1617 7.27011 15.3261 7.28493 15.4814 7.33488C15.6366 7.38484 15.7788 7.46868 15.8976 7.58034C16.0165 7.69201 16.109 7.8287 16.1685 7.98052C16.228 8.13234 16.253 8.29549 16.2417 8.45817C16.2533 8.62165 16.2281 8.78563 16.1681 8.93814C16.1081 9.09065 16.0148 9.22783 15.895 9.33965C15.7752 9.45147 15.6319 9.53511 15.4756 9.58445C15.3194 9.63379 15.154 9.64759 14.9917 9.62484H13.9834L14.0001 7.2915ZM18.8834 12.4415C19.1541 12.45 19.4219 12.3847 19.6583 12.2526C19.8946 12.1205 20.0906 11.9265 20.2251 11.6915V12.3915H21.0584V9.47484C21.0584 8.6415 20.3834 8.07484 19.3334 8.07484C18.9394 8.0367 18.5458 8.15245 18.2352 8.39786C17.9245 8.64327 17.7208 8.99933 17.6667 9.3915H18.5001C18.552 9.2128 18.6623 9.05664 18.8133 8.9479C18.9644 8.83916 19.1475 8.7841 19.3334 8.7915C19.8917 8.7915 20.1667 9.04984 20.1667 9.53317V9.85817L19.0251 9.92484C17.9667 9.9915 17.3584 10.4248 17.3584 11.1748C17.3641 11.3594 17.4093 11.5406 17.491 11.7062C17.5727 11.8718 17.6889 12.018 17.8318 12.1349C17.9748 12.2517 18.1411 12.3366 18.3196 12.3838C18.4982 12.4309 18.6847 12.4392 18.8667 12.4082L18.8834 12.4415ZM19.1334 11.7415C18.6417 11.7415 18.3001 11.5082 18.3001 11.1498C18.3001 10.7915 18.6001 10.5665 19.1334 10.5332L20.1501 10.4665V10.7998C20.1288 11.0555 20.0092 11.293 19.8165 11.4623C19.6239 11.6317 19.373 11.7198 19.1167 11.7082L19.1334 11.7415ZM22.2167 13.9915C23.1084 13.9915 23.5251 13.6498 23.8834 12.6248L25.4834 8.13317H24.5501L23.4751 11.5998L22.4001 8.13317H21.4251L22.9751 12.4082L22.8917 12.6665C22.8631 12.846 22.7688 13.0085 22.6272 13.1225C22.4855 13.2364 22.3066 13.2937 22.1251 13.2832H21.8584V13.9832C21.9728 13.9838 22.087 13.9754 22.2001 13.9582L22.2167 13.9915Z" fill="#231F20"/>
</svg>
