<svg width="33" height="20" viewBox="0 0 33 20" fill="none" xmlns="http://www.w3.org/2000/svg">
<path d="M28.1667 0H4.83341C2.53223 0 0.666748 1.86548 0.666748 4.16667V15.8333C0.666748 18.1345 2.53223 20 4.83341 20H28.1667C30.4679 20 32.3334 18.1345 32.3334 15.8333V4.16667C32.3334 1.86548 30.4679 0 28.1667 0Z" fill="#00ADEF"/>
<path d="M16.2167 7.9165H15.6667L14.425 10.5748L13.1667 7.9165H11.5V11.4415L9.9 7.9165H8.31667L6.5 12.0832H7.74167L8.11667 11.1582H10.0667L10.4667 12.0832H12.5417V9.07484L13.9333 12.0832H14.9417L16.2167 9.32484V12.0832H17.3333V7.9165H16.2167ZM8.50833 10.2082L9.06667 8.82484L9.65833 10.2082H8.50833Z" fill="white"/>
<path d="M26.5001 7.9165H25.0334L23.8501 9.1665L22.6918 7.9165H18.1001V12.0832H22.6001L23.8334 10.7665L25.0334 12.0832H26.5001L24.5751 9.99984L26.5001 7.9165ZM21.5001 11.6665V11.1248H19.1751V10.4665H21.5001V9.52484H19.1751V8.8665H21.5001V8.2415L23.1084 9.99984L21.5001 11.6665Z" fill="white"/>
</svg>
