<svg width="32" height="20" viewBox="0 0 32 20" fill="none" xmlns="http://www.w3.org/2000/svg">
<path d="M27.8333 0H4.49992C2.19873 0 0.333252 1.86548 0.333252 4.16667V15.8333C0.333252 18.1345 2.19873 20 4.49992 20H27.8333C30.1344 20 31.9999 18.1345 31.9999 15.8333V4.16667C31.9999 1.86548 30.1344 0 27.8333 0Z" fill="#122A96"/>
<path d="M13.4665 7.1332L11.0748 12.8749H9.49984L8.3415 8.3332C8.33215 8.22543 8.29498 8.12192 8.23363 8.03282C8.17228 7.94372 8.08885 7.87206 7.9915 7.82487C7.52956 7.60362 7.04275 7.43856 6.5415 7.3332V7.16654H9.0415C9.20696 7.16849 9.36638 7.22898 9.49147 7.33729C9.61656 7.4456 9.69924 7.59473 9.72484 7.7582L10.3415 11.0915L11.8748 7.1832L13.4665 7.1332ZM19.5748 10.9999C19.5748 9.49154 17.4915 9.4082 17.5082 8.72487C17.5082 8.52487 17.7082 8.29987 18.1332 8.24987C18.633 8.19926 19.1371 8.28569 19.5915 8.49987L19.8498 7.2832C19.4065 7.12101 18.9386 7.03644 18.4665 7.0332C17.0082 7.0332 15.9665 7.8082 15.9665 8.9332C15.9665 9.76654 16.6998 10.2165 17.2582 10.4915C17.8165 10.7665 18.0248 10.9582 18.0248 11.2082C18.0248 11.5915 17.5665 11.7582 17.1415 11.7665C16.6134 11.7804 16.0908 11.657 15.6248 11.4082L15.3332 12.6665C15.8648 12.8709 16.4303 12.9727 16.9998 12.9665C18.5498 12.9665 19.5582 12.1999 19.5665 10.9999H19.5748ZM23.4165 12.8749H24.7748L23.5915 7.1332H22.3415C22.2056 7.13306 22.0728 7.17342 21.96 7.24912C21.8472 7.32482 21.7595 7.43243 21.7082 7.5582L19.4998 12.8749H21.0498L21.3498 12.0415H23.2415L23.4165 12.8749ZM21.7498 10.8415L22.5332 8.69154L22.9998 10.8332L21.7498 10.8415ZM15.5498 7.1332L14.3332 12.8749H12.8832L14.0998 7.1332H15.5498Z" fill="white"/>
</svg>
