**ABCDEFGHIJKLMNOPQRSTUVWXYZabcdefghijklmnopqrstuvwxyz**************************
**PARASOLID !"#$%&'()*+,-./:;<=>?@[\]^_`{|}~0123456789**************************
**PART1;
MC=AMD64;
MC_MODEL=Intel64 Family 6 Model 61 Stepping 4, GenuineIntel;
MC_ID=unknown;
OS=Windows_NT;
OS_RELEASE=unknown;
FRU=Parasolid Version 31.1, build 290,  3- 9-2020;
APPL=SOLIDWORKS 2020-2020128;
SITE=;
USER=unknown;
FORMAT=text;
GUISE=transmit;
KEY=Capteur IR;
FILE=Capteur IR.x_t;
DATE=Wed Mar 17 16:22:31 2021;
**PART2;
SCH=SCH_3101290_31100;
USFLD_SIZE=0;
**PART3;
**END_OF_HEADER*****************************************************************
T51 : TRANSMIT FILE created by modeller version 310129023 SCH_3101290_31100_1300
6222 0 12 34 CCCCCCI4 mesh1006 0 I8 polyline1008 0 CCCCCCCDI5 owner1040 0 CCCCCC
I13 boundary_mesh1006 0 I17 boundary_polyline1008 0 CCCA16 index_map_offset0 0 1
 dA9 index_map82 0 A17 node_id_index_map82 0 A20 schema_embedding_map82 0 A5 chi
ld12 0 A14 lowest_node_id0 0 1 dA16 mesh_offset_data206 0 Z1 1894 2 3 0 0 0 0 0
 0 1e3 1e-8 0 4 0 1 0 1 1 5 6 7 8 0 0 9 10 11 0 0 0 0 0 0 0 81 255 2 2 1862 12 1
 13 0 0 0 0 14 70 11 CI9 list_type0 0 1 uI10 notransmit0 0 1 lCCCDCCDI12 finger_
index0 0 1 dI12 finger_block1012 0 CZ3 0 4 T1 0 0 11 20 1 15 15 13 255 5 99 0 1
 0 16 0 0 17 0 50 255 6 94 0 16 18 0 0 +-.01475 .0065 .0072 1 0 0 0 0 -1 30 255
 7 98 0 10 19 0 0 +-.01475 -.0065 .0072 0 0 -1 29 255 8 853 0 11 20 0 -.01475 -.
00375 0 19 8 CCCCCCCA5 owner12 0 Z9 33 0 1 17 0 21 V0 16 255 10 82 22 ?23 0 24 7
 0 0 1 18 255 11 851 0 25 0 26 8 ?1 17 255 25 0 27 28 29 11 30 31 0 32 +18 26 72
4 0 33 11 34 20 ?1 17 33 0 35 36 37 26 38 39 0 40 +18 34 526 0 41 26 42 43 ?1 29
 20 726 0 26 43 8 .01475 .00375 0 29 43 528 0 34 44 20 -.00505 -.005960264638224
64 .0072 29 44 524 0 42 45 43 .00505 -.00596026463822464 .0072 18 42 522 0 46 34
 47 44 ?1 29 45 521 0 47 48 44 .00505 -.0065 .0072 18 47 519 0 49 42 50 45 ?1 29
 48 518 0 50 51 45 -.00505 -.0065 .0072 18 50 516 0 52 47 53 48 ?1 29 51 401 0 5
3 54 48 .00505 -.0065 .00330000000000007 18 53 399 0 55 50 56 51 ?1 29 54 277 0
 56 57 51 -.0065 .0036 .0115 18 56 275 0 58 53 59 54 ?1 29 57 152 0 59 60 54 .01
475 .0042 .0072 18 59 150 0 61 56 62 57 ?1 29 60 75 0 63 64 57 -.01475 .0065 0 1
8 63 66 0 65 66 67 60 ?1 29 64 76 0 67 68 60 .01475 .0065 0 18 67 67 0 69 63 70
 64 ?1 29 68 77 0 70 71 64 .01475 -.0065 0 18 70 68 0 72 67 73 68 ?1 29 71 78 0
 73 74 68 -.01475 -.0065 0 18 73 69 0 75 70 76 71 ?1 29 74 32 0 62 77 71 -.01475
 .0065 .0072 18 62 30 0 78 59 79 74 ?1 29 77 29 0 79 80 74 .01475 .0065 .0072 18
 79 27 0 81 62 82 77 ?1 29 80 26 0 82 83 77 .01475 -.0065 .0072 18 82 24 0 84 79
 66 80 ?1 29 83 23 0 66 85 80 -.01475 -.0065 .0072 18 66 21 0 86 82 63 83 ?1 29
 85 240 0 87 88 83 -.01475 -.0042 .0072 18 87 193 0 89 90 91 85 ?1 29 88 241 0 9
1 92 85 -.01475 .0042 .0072 18 91 194 0 93 87 94 88 ?1 29 92 243 0 94 95 88 .014
75 -.0042 .0072 18 94 197 0 96 91 97 92 ?1 29 95 244 0 76 98 92 -.01475 -.0042 .
0115 18 76 196 0 99 73 100 95 ?1 29 98 245 0 100 101 95 -.01475 .0042 .0115 18 1
00 191 0 102 76 103 98 ?1 29 101 246 0 103 104 98 .01475 .0042 .0115 18 103 195
 0 105 100 90 101 ?1 29 104 247 0 90 106 101 .01475 -.0042 .0115 18 90 190 0 107
 103 87 104 ?1 29 106 371 0 108 109 104 -.014 .0036 .0115 18 108 324 0 110 111 1
12 106 ?1 29 109 373 0 112 113 106 -.0065 -.0036 .0115 18 112 321 0 114 108 115
 109 ?1 29 113 374 0 115 116 109 -.014 -.0036 .0115 18 115 328 0 117 112 118 113
 ?1 29 116 375 0 97 119 113 -.014 .0036 .0135 18 97 327 0 120 94 121 116 ?1 29 1
19 376 0 121 122 116 -.0065 .0036 .0135 18 121 326 0 123 97 124 119 ?1 29 122 37
7 0 124 125 119 -.0065 -.0036 .0135 18 124 325 0 126 121 111 122 ?1 29 125 378 0
 111 127 122 -.014 -.0036 .0135 18 111 322 0 128 124 108 125 ?1 29 127 491 0 118
 129 125 -.00505 -.0065 .00330000000000007 18 118 444 0 130 115 131 127 ?1 29 12
9 493 0 131 132 127 .00505 -.0124 .00330000000000007 18 131 441 0 133 118 134 12
9 ?1 29 132 494 0 134 135 129 -.00505 -.0124 .00330000000000007 18 134 448 0 136
 131 137 132 ?1 29 135 673 0 138 139 132 .00505 -.0124 .01007713460014302 18 138
 597 0 140 141 142 135 ?1 29 139 674 0 142 143 135 .00505 -.00683047926311858 .0
1007713460014302 18 142 599 0 144 138 145 139 ?1 29 143 675 0 145 146 139 .00505
 -.00683047926311858 .00850886516491374 18 145 601 0 147 142 148 143 ?1 29 146 6
80 0 137 149 143 -.00505 -.0124 .01007713460014302 18 137 594 0 150 134 151 146
 ?1 29 149 681 0 151 152 146 -.00505 -.00683047926311858 .01007713460014302 18 1
51 596 0 153 137 141 149 ?1 29 152 682 0 141 154 149 -.00505 -.00683047926311858
 .00850886516491374 18 141 598 0 155 151 138 152 ?1 29 154 839 0 156 157 152 .01
85 .00375 0 18 156 781 0 158 159 160 154 ?1 29 157 840 0 160 161 154 .0185 -.003
75 0 18 160 779 0 162 156 163 157 ?1 29 161 841 0 163 164 157 .01475 -.00375 0 1
8 163 783 0 165 160 166 161 ?1 29 164 842 0 148 167 161 .01475 .00375 .002 18 14
8 784 0 168 145 169 164 ?1 29 167 843 0 169 170 164 .0185 .00375 .002 18 169 778
 0 171 148 172 167 ?1 29 170 844 0 172 173 167 .0185 -.00375 .002 18 172 777 0 1
74 169 159 170 ?1 29 173 845 0 159 175 170 .01475 -.00375 .002 18 159 780 0 176
 172 156 173 ?1 29 175 965 0 177 178 173 -.0185 .00375 0 18 177 911 0 179 180 18
1 175 ?1 29 178 966 0 181 182 175 -.01475 .00375 0 18 181 910 0 183 177 184 178
 ?1 29 182 968 0 184 185 178 -.0185 -.00375 0 18 184 908 0 30 181 0 182 ?1 29 18
5 969 0 166 186 182 -.0185 .00375 .002 18 166 906 0 187 163 188 185 ?1 29 186 97
0 0 188 189 185 -.01475 .00375 .002 18 188 905 0 190 166 191 186 ?1 29 189 971 0
 191 192 186 -.01475 -.00375 .002 18 191 904 0 193 188 180 189 ?1 29 192 972 0 1
80 0 189 -.0185 -.00375 .002 18 180 909 0 194 191 177 192 ?1 17 194 0 27 29 28 1
80 193 195 0 196 -15 255 27 927 0 25 197 0 17 29 0 27 25 194 184 198 199 0 200 +
17 28 0 27 194 25 191 32 201 0 202 -17 193 0 203 190 196 191 194 195 0 28 +16 19
5 869 204 ?193 205 206 207 0 0 1 17 196 0 203 193 187 180 208 206 0 198 +15 203
 914 0 196 209 210 17 187 0 203 196 190 166 211 212 0 213 +17 208 0 214 215 198
 166 196 206 0 0 -16 206 866 216 ?196 195 217 218 0 0 1 17 198 0 214 208 200 180
 29 199 0 0 -15 214 923 0 200 219 0 17 200 0 214 198 215 184 220 221 0 0 +16 199
 890 222 ?29 223 201 224 0 0 1 81 2 222 1661 225 199 0 0 226 227 0 0 16 223 753
 228 ?229 230 199 231 0 0 1 16 201 896 232 ?32 199 233 234 0 0 1 30 224 951 0 19
9 234 235 0 +-.0185 -.00375 .002 0 0 -1 30 234 952 0 201 236 224 0 +-.01475 -.00
375 .002 0 0 -1 31 255 235 837 0 230 224 231 0 +.0185 459242549680257e-33 .002 0
 0 1 1 0 0 .0016 16 230 774 237 ?238 239 223 235 0 0 1 31 231 836 0 223 235 240
 0 +.0185 459242549680257e-33 0 0 0 1 1 0 0 .0016 30 240 835 0 241 231 242 0 +.0
1475 -693889390390723e-32 .002 -18503717077086e-28 -1 0 16 241 739 243 ?244 245
 39 240 0 0 1 30 242 834 0 245 240 246 0 +.0185 -.00375 .002 1 0 0 16 245 744 24
7 ?174 248 241 242 0 0 1 31 246 833 0 248 242 249 0 +.0185 459242549680257e-33 .
002 0 0 1 1 0 0 .00375 16 248 747 250 ?171 251 245 246 0 0 1 30 249 832 0 251 24
6 252 0 +.0185 .00375 .002 -1 -1156482317317876e-31 0 16 251 750 253 ?168 254 24
8 249 0 0 1 30 252 831 0 239 249 255 0 +.0185 -.00375 0 1 0 0 16 239 756 256 ?16
2 257 230 252 0 0 1 31 255 830 0 257 252 258 0 +.0185 459242549680257e-33 0 0 0
 1 1 0 0 .00375 16 257 760 259 ?158 39 239 255 0 0 1 30 258 829 0 39 255 260 0 +
.0185 .00375 0 -1 -1156482317317876e-31 0 16 39 764 261 ?33 241 257 258 0 0 1 30
 260 827 0 254 258 262 0 +.01475 .00375 .002 0 0 -1 16 254 773 263 ?40 264 251 2
60 0 0 1 30 262 826 0 264 260 265 0 +.0185 .00375 .002 0 0 -1 16 264 767 266 ?37
 267 254 262 0 0 1 30 265 825 0 267 262 268 0 +.0185 -.00375 .002 0 0 -1 16 267
 763 269 ?270 271 264 265 0 0 1 30 268 824 0 271 265 272 0 +.01475 -.00375 .002
 0 0 -1 16 271 759 273 ?274 275 267 268 0 0 1 30 272 669 0 276 268 277 0 +-.0050
5 -.00596026463822464 .0072 0 1 0 16 276 563 278 ?41 279 280 272 0 0 1 30 277 66
8 0 279 272 281 0 +-.00505 -.00683047926311858 .00850886516491374 0 -.5536593078
47889 .832743280269133 16 279 559 282 ?283 284 276 277 0 0 1 30 281 667 0 284 27
7 285 0 +-.00505 -.00683047926311858 .01007713460014302 0 0 1 16 284 555 286 ?28
7 288 279 281 0 0 1 30 285 666 0 288 281 289 0 +-.00505 -.0124 .0100771346001430
2 0 -1 0 16 288 551 227 ?290 291 284 285 0 0 1 30 289 662 0 275 285 292 0 +.0050
5 -.00596026463822464 .0072 0 1 0 16 275 577 293 ?294 295 271 289 0 0 1 30 292 6
61 0 295 289 296 0 +.00505 -.00683047926311858 .00850886516491374 0 -.5536593078
47889 .832743280269133 16 295 580 297 ?298 299 275 292 0 0 1 30 296 660 0 299 29
2 300 0 +.00505 -.00683047926311858 .01007713460014302 0 0 1 16 299 583 301 ?302
 280 295 296 0 0 1 30 300 659 0 280 296 303 0 +.00505 -.0124 .01007713460014302
 0 -1 0 16 280 586 304 ?305 276 299 300 0 0 1 30 303 656 0 306 300 307 0 +-.0050
5 -.0124 .01007713460014302 1 0 0 16 306 554 308 ?309 310 311 303 0 0 1 30 307 6
55 0 311 303 312 0 +-.00505 -.00683047926311858 .01007713460014302 1 0 0 16 311
 558 313 ?144 306 314 307 0 0 1 30 312 654 0 314 307 315 0 +-.00505 -.0068304792
6311858 .00850886516491374 1 0 0 16 314 562 316 ?147 311 291 312 0 0 1 30 315 65
3 0 291 312 317 0 +-.00505 -.00596026463822464 .0072 1 0 0 16 291 566 318 ?46 31
4 288 315 0 0 1 30 317 486 0 310 315 319 0 +-.00505 -.0124 .00330000000000007 29
4020928131662e-30 -1 0 16 310 413 320 ?321 322 306 317 0 0 1 30 319 485 0 322 31
7 323 0 +-.00505 -.0124 .00330000000000007 1 171754799601664e-30 0 16 322 417 32
4 ?133 325 310 319 0 0 1 30 323 484 0 325 319 326 0 +.00505 -.0124 .003300000000
00007 0 1 0 16 325 421 327 ?328 329 322 323 0 0 1 30 326 483 0 329 323 330 0 +.0
0505 -.0065 .00330000000000007 -1 -85877399800832e-30 0 16 329 425 331 ?332 333
 325 326 0 0 1 30 330 482 0 333 326 334 0 +-.00505 -.0065 .00450000000000007 0 0
 -1 16 333 416 335 ?130 336 329 330 0 0 1 30 334 481 0 336 330 337 0 +.00505 -.0
065 .00450000000000007 0 0 -1 16 336 428 338 ?339 340 333 334 0 0 1 30 337 480 0
 340 334 341 0 +.00505 -.0124 .00450000000000007 0 0 -1 16 340 424 342 ?343 344
 336 337 0 0 1 30 341 479 0 344 337 345 0 +-.00505 -.0124 .00450000000000007 0 0
 -1 16 344 420 346 ?347 348 340 341 0 0 1 30 345 370 0 349 341 350 0 +-.014 .003
6 .0135 48186763221578e-29 -1 0 16 349 309 351 ?352 353 354 345 0 0 1 30 350 369
 0 353 345 355 0 +-.014 -.0036 .0135 1 0 0 16 353 312 356 ?126 357 349 350 0 0 1
 30 355 368 0 357 350 358 0 +-.0065 -.0036 .0135 -24093381610789e-29 1 0 16 357
 315 359 ?123 360 353 355 0 0 1 30 358 367 0 360 355 361 0 +-.0065 .0036 .0135 -
1 -115648231731787e-30 0 16 360 318 362 ?120 363 357 358 0 0 1 30 361 366 0 348
 358 364 0 +-.014 .0036 .0115 48186763221578e-29 -1 0 16 348 293 365 ?366 367 34
4 361 0 0 1 30 364 365 0 367 361 368 0 +-.014 -.0036 .0115 1 0 0 16 367 297 369
 ?114 370 348 364 0 0 1 30 368 364 0 370 364 371 0 +-.0065 -.0036 .0115 -2409338
1610789e-29 1 0 16 370 301 372 ?373 354 367 368 0 0 1 30 371 363 0 354 368 374 0
 +-.0065 .0036 .0115 -1 -115648231731787e-30 0 16 354 305 375 ?110 349 370 371 0
 0 1 30 374 362 0 363 371 376 0 +-.014 .0036 .0135 0 0 -1 16 363 296 377 ?378 37
9 360 374 0 0 1 30 376 361 0 379 374 380 0 +-.0065 .0036 .0135 0 0 -1 16 379 308
 381 ?58 382 363 376 0 0 1 30 380 360 0 382 376 383 0 +-.0065 -.0036 .0135 0 0 -
1 16 382 304 384 ?385 386 379 380 0 0 1 30 383 359 0 386 380 387 0 +-.014 -.0036
 .0135 0 0 -1 16 386 300 388 ?117 389 382 383 0 0 1 30 387 239 0 390 383 391 0 +
-.01475 -.0042 .0115 1 0 0 16 390 178 392 ?393 394 395 387 0 0 1 30 391 238 0 39
4 387 396 0 +.01475 -.0042 .0115 165211759616839e-29 1 0 16 394 181 397 ?105 398
 390 391 0 0 1 30 396 237 0 398 391 399 0 +-.01475 .0042 .0115 1 0 0 16 398 170
 400 ?401 402 394 396 0 0 1 30 399 236 0 402 396 403 0 +-.01475 .0042 .0115 0 -1
 0 16 402 184 404 ?99 405 398 399 0 0 1 30 403 235 0 389 399 406 0 +-.01475 -.00
42 .0072 1 0 0 16 389 162 407 ?408 395 386 403 0 0 1 30 406 233 0 395 403 409 0
 +-.01475 .0042 .0072 1 0 0 16 395 187 410 ?411 390 389 406 0 0 1 30 409 231 0 4
05 406 412 0 +-.01475 -.0042 .0115 0 0 -1 16 405 165 413 ?89 414 402 409 0 0 1 3
0 412 230 0 414 409 415 0 +-.01475 .0042 .0115 0 0 -1 16 414 177 416 ?93 417 405
 412 0 0 1 30 415 229 0 417 412 418 0 +.01475 .0042 .0115 0 0 -1 16 417 173 419
 ?61 420 414 415 0 0 1 30 418 228 0 420 415 421 0 +.01475 -.0042 .0115 0 0 -1 16
 420 169 422 ?96 423 417 418 0 0 1 30 421 7 0 424 418 425 0 +-.01475 .0065 .0072
 0 -1 0 16 424 5 426 ?427 428 429 421 429 429 1 30 425 11 0 430 421 431 0 +-.014
75 -.0065 .0072 1 0 0 16 430 9 432 ?433 434 428 425 428 428 1 30 431 15 0 435 42
5 436 0 +.01475 .0065 .0072 0 1 0 16 435 13 437 ?438 439 434 431 434 434 1 30 43
6 19 0 439 431 440 0 +-.01475 .0065 .0072 -1 0 0 16 439 17 441 ?78 442 435 436 0
 0 1 30 440 74 0 443 436 444 0 +-.01475 .0065 0 0 -1 0 16 443 62 445 ?446 447 42
3 440 423 423 1 30 444 73 0 447 440 448 0 +-.01475 -.0065 0 1 0 0 16 447 58 449
 ?72 450 443 444 0 0 1 30 448 72 0 451 444 452 0 +.01475 .0065 0 0 1 0 16 451 54
 453 ?454 455 450 448 450 450 1 30 452 71 0 455 448 456 0 +-.01475 .0065 0 -1 0
 0 16 455 50 457 ?65 429 451 452 0 0 1 30 456 95 0 442 452 458 0 +-.01475 .0065
 .0072 0 0 -1 16 442 79 459 ?460 461 439 456 0 0 1 30 458 96 0 461 456 19 0 +.01
475 .0065 .0072 0 0 -1 16 461 80 462 ?463 24 442 458 0 0 1 30 19 97 0 24 458 7 0
 +.01475 -.0065 .0072 0 0 -1 16 24 81 464 ?465 10 461 19 0 0 1 81 2 464 1704 225
 24 0 0 372 466 0 0 17 465 0 467 454 468 70 469 24 0 470 +15 467 734 0 471 472 0
 17 454 0 467 471 465 163 470 451 0 0 +17 468 0 467 465 96 82 438 435 0 0 -17 46
9 0 473 474 72 82 465 24 0 468 -17 470 0 475 476 165 70 454 451 0 0 -15 475 49 0
 477 478 479 17 476 0 475 480 470 73 72 447 0 23 -17 165 0 475 470 481 163 162 2
39 0 274 -17 481 0 475 165 38 160 158 257 0 0 -17 162 0 482 483 274 160 165 239
 0 270 +17 274 0 482 162 176 163 471 271 0 454 +15 482 796 0 162 484 0 17 176 0
 482 274 483 159 174 245 0 244 -17 471 0 467 485 454 159 274 271 0 0 -17 485 0 4
67 40 471 148 244 241 0 0 -17 40 0 467 69 485 26 36 254 0 486 +17 244 0 487 174
 168 159 485 241 0 471 +15 487 787 0 244 488 489 17 174 0 487 171 244 172 176 24
5 0 483 +17 168 0 487 244 171 148 490 251 0 36 +17 171 0 487 168 174 169 491 248
 0 492 +17 490 0 35 37 36 169 168 251 0 0 -17 36 0 35 490 33 148 40 254 0 485 -1
5 35 804 0 33 493 0 14 255 493 801 494 ?495 496 35 5 497 -0 0 495 496 21 81 1 49
4 1863 498 493 499 0 0 500 501 14 495 810 500 ?209 493 502 5 503 +0 0 209 493 21
 14 496 797 504 ?493 484 505 5 506 -0 0 493 484 21 50 497 819 0 493 507 506 0 +.
0185 .00375 .002 1156482317317876e-31 -1 0 1 1156482317317876e-31 0 13 21 34 0 0
 0 0 0 0 9 16 14 16 862 508 ?472 0 509 5 6 -0 0 472 0 21 81 1 508 1866 498 16 51
0 0 504 511 512 14 472 735 511 ?513 16 467 5 514 -0 0 513 16 21 15 509 861 0 515
 16 0 17 515 0 509 202 446 188 183 233 0 0 -17 202 0 509 32 515 191 190 205 0 0
 -17 446 0 509 515 460 181 477 443 0 0 +17 183 0 516 179 211 181 515 233 0 517 +
16 233 900 466 ?183 201 518 236 0 0 1 81 2 466 1705 225 233 0 0 464 247 0 0 16 5
18 886 519 ?215 233 212 520 0 0 1 30 236 953 0 233 520 234 0 +-.01475 .00375 .00
2 0 0 -1 30 520 954 0 518 521 236 0 +-.0185 .00375 .002 0 0 -1 30 521 955 0 217
 522 520 0 +-.0185 .00375 0 -1 1156482317317876e-31 0 16 217 897 523 ?179 206 31
 521 0 0 1 30 522 957 0 31 524 521 0 +-.0185 -.00375 0 1 0 0 16 31 887 525 ?25 2
17 221 522 0 0 1 31 524 958 0 221 526 522 0 +-.0185 459242549680256e-33 0 0 0 1
 -1 0 0 .00375 16 221 883 527 ?200 31 528 524 0 0 1 30 526 959 0 212 529 524 0 +
-.0185 .00375 .002 -1 1156482317317876e-31 0 16 212 877 530 ?187 518 205 526 0 0
 1 30 529 960 0 205 207 526 0 +-.01475 -693889390390723e-32 .002 -18503717077086
e-28 1 0 16 205 872 531 ?190 212 195 529 0 0 1 30 207 961 0 195 218 529 0 +-.018
5 -.00375 .002 1 0 0 31 218 962 0 206 532 207 0 +-.0185 459242549680256e-33 .002
 0 0 1 -1 0 0 .00375 31 532 963 0 533 534 218 0 +-.0185 459242549680256e-33 0 0
 0 1 -1 0 0 .0016 16 533 880 535 ?536 528 0 532 0 0 1 31 534 964 0 528 0 532 0 +
-.0185 459242549680256e-33 .002 0 0 1 -1 0 0 .0016 16 528 901 537 ?538 221 533 5
34 0 0 1 81 2 537 1699 225 528 0 0 232 304 0 0 17 538 0 539 538 538 0 540 528 0
 0 +15 539 940 0 538 541 542 17 540 0 210 540 540 0 538 528 0 0 -15 210 915 0 54
0 209 0 14 209 912 543 ?219 495 203 5 544 -0 0 219 495 21 81 1 543 1868 498 209
 545 0 511 546 547 14 219 920 546 ?197 209 214 5 548 -0 0 197 209 21 50 544 949
 0 209 549 550 0 +-.0185 459242549680256e-33 .002 0 0 -1 -1 0 0 51 255 549 950 0
 541 0 544 0 --.0185 459242549680256e-33 .002 0 0 -1 .0016 -1 0 0 50 550 947 0 5
51 544 552 0 +-.0185 .00375 .002 -1156482317317876e-31 -1 0 1 -1156482317317876e
-31 0 14 551 933 553 ?541 197 516 5 550 -0 0 541 197 21 50 552 945 0 197 550 548
 0 +-.0185 -.00375 .002 0 1 0 0 0 1 14 197 924 554 ?551 219 27 5 552 -0 0 551 21
9 21 51 548 944 0 219 552 503 0 --.0185 459242549680256e-33 .002 0 0 -1 .00375 -
1 0 0 51 503 823 0 495 548 507 0 -.0185 459242549680257e-33 .002 0 0 -1 .0016 -1
 0 0 50 507 822 0 488 503 497 0 +.0185 459242549680257e-33 .002 0 0 1 1 0 0 14 4
88 785 555 ?484 556 487 5 507 +0 0 484 556 21 81 1 555 1872 498 488 557 0 554 55
8 559 14 484 793 558 ?496 488 482 5 560 -0 0 496 488 21 14 556 622 561 ?488 562
 563 5 564 +0 0 488 562 21 81 1 561 1874 498 556 565 0 558 566 567 14 562 618 56
6 ?556 568 569 5 570 +0 0 556 568 21 15 563 625 0 571 556 0 50 564 645 0 556 570
 572 0 +-.00505 -.00683047926311858 .00850886516491374 0 .832743280269133 .55365
930784789 0 -.55365930784789 .832743280269133 50 570 646 0 562 573 564 0 +-.0050
5 -.00683047926311858 .01007713460014302 0 1 0 0 0 1 50 572 477 0 574 564 575 0
 +0 0 .00330000000000007 0 0 1 1 0 0 14 574 468 576 ?568 577 578 5 572 -0 0 568
 577 21 50 575 475 0 577 572 579 0 +.00505 -.0124 .00450000000000007 -1 0 0 0 0
 1 14 577 457 580 ?574 581 582 5 575 -0 0 574 581 21 50 579 474 0 581 575 583 0
 +-.00505 -.0124 .00450000000000007 -171754799601664e-30 1 0 -1 -171754799601664
e-30 0 14 581 453 584 ?577 585 586 5 579 -0 0 577 585 21 50 583 473 0 585 579 58
7 0 +-.00505 -.0124 .00450000000000007 1 294020928131662e-30 0 -294020928131662e
-30 1 0 14 585 449 588 ?581 589 590 5 583 -0 0 581 589 21 50 587 358 0 589 583 5
91 0 +0 0 .0135 0 0 1 1 0 0 14 589 345 592 ?585 593 594 5 587 +0 0 585 593 21 50
 591 356 0 593 587 595 0 +-.0065 .0036 .0135 115648231731787e-30 -1 0 1 11564823
1731787e-30 0 14 593 341 596 ?589 597 598 5 591 -0 0 589 597 21 50 595 355 0 597
 591 599 0 +-.0065 -.0036 .0135 -1 -24093381610789e-29 0 24093381610789e-29 -1 0
 14 597 337 600 ?593 601 602 5 595 -0 0 593 601 21 50 599 354 0 601 595 603 0 +-
.014 -.0036 .0135 0 1 0 0 0 1 14 601 333 604 ?597 605 606 5 599 -0 0 597 605 21
 50 603 353 0 605 599 607 0 +-.014 .0036 .0135 1 48186763221578e-29 0 -481867632
21578e-29 1 0 14 605 329 608 ?601 609 610 5 603 -0 0 601 609 21 50 607 227 0 513
 603 611 0 +0 0 .0115 0 0 1 1 0 0 14 513 290 612 ?613 472 614 5 607 +0 0 613 472
 21 50 611 224 0 609 607 615 0 +-.01475 .0042 .0115 0 1 0 0 0 1 14 609 206 616 ?
605 617 618 5 611 +0 0 605 617 21 50 615 222 0 617 611 619 0 +-.01475 -.0042 .01
15 0 1 0 0 0 1 14 617 198 620 ?609 478 621 5 615 -0 0 609 478 21 50 619 3 0 622
 615 623 0 +0 0 .0072 0 0 1 1 0 0 14 622 1 624 ?478 625 626 5 619 +613 613 478 6
25 21 50 623 70 0 478 619 627 0 +0 0 0 0 0 1 1 0 0 14 478 48 628 ?617 622 475 5
 623 -0 0 617 622 21 50 627 91 0 625 623 514 0 +-.01475 .0065 .0072 0 -1 0 0 0 -
1 14 625 84 629 ?622 630 631 5 627 -0 0 622 630 21 50 514 92 0 472 627 18 0 +.01
475 .0065 .0072 -1 0 0 0 0 1 50 18 93 0 630 514 6 0 +-.01475 -.0065 .0072 0 1 0
 0 0 1 14 630 88 632 ?625 613 473 5 18 -0 0 625 613 21 81 1 632 1891 498 630 633
 0 629 634 635 14 613 155 634 ?630 513 636 5 619 +622 622 630 513 21 15 473 397
 0 52 630 0 17 52 0 473 637 332 50 130 333 0 433 -17 637 0 473 23 52 66 433 430
 0 638 -17 332 0 473 52 339 118 55 329 0 0 +17 130 0 590 321 639 118 52 333 0 64
0 +17 433 0 626 41 86 50 637 430 0 639 +15 626 531 0 41 622 0 17 41 0 626 46 433
 34 639 276 0 641 +17 86 0 626 433 642 66 643 429 0 637 +17 639 0 590 130 644 50
 41 276 0 0 -15 590 452 0 321 585 0 17 644 0 590 639 645 34 283 279 0 0 -17 645
 0 590 644 646 141 287 284 0 283 -17 283 0 563 147 641 141 644 279 0 0 +17 147 0
 563 571 283 145 155 314 0 647 +17 641 0 563 283 571 34 46 291 0 644 -17 571 0 5
63 641 147 42 298 295 0 294 -17 46 0 626 648 41 42 641 291 0 571 +17 648 0 626 8
4 46 47 294 275 0 474 -17 84 0 626 438 648 82 474 428 0 469 +17 294 0 582 298 49
 42 648 275 0 0 +17 474 0 473 339 469 47 84 428 0 0 -17 339 0 473 332 474 53 49
 336 0 0 +16 428 520 649 ?84 430 424 425 430 430 1 81 2 649 1689 225 428 0 0 362
 413 0 0 80 255 2 225 650 651 9000 0 0 0 0 3 6 0 0 0 FFFFFFTFFFFFFF9 1 81 2 362
 1688 225 360 0 0 269 649 0 0 81 2 413 1690 225 405 0 0 649 250 0 0 81 2 250 169
1 225 248 0 0 413 346 0 0 81 2 346 1692 225 344 0 0 250 432 0 0 81 2 432 1693 22
5 430 0 0 346 237 0 0 81 2 237 1694 225 230 0 0 432 256 0 0 81 2 256 1695 225 23
9 0 0 237 449 0 0 81 2 449 1696 225 447 0 0 256 453 0 0 81 2 453 1697 225 451 0
 0 449 232 0 0 81 2 232 1698 225 201 0 0 453 537 0 0 81 2 269 1687 225 267 0 0 4
41 362 0 0 81 2 441 1686 225 439 0 0 331 269 0 0 81 2 331 1685 225 329 0 0 388 4
41 0 0 81 2 388 1684 225 386 0 0 351 331 0 0 81 2 351 1683 225 349 0 0 316 388 0
 0 81 2 316 1682 225 314 0 0 253 351 0 0 81 2 253 1681 225 251 0 0 519 316 0 0 8
1 2 519 1680 225 518 0 0 273 253 0 0 81 2 273 1679 225 271 0 0 652 519 0 0 81 2
 652 1678 225 450 0 0 375 273 0 0 16 450 725 652 ?69 451 447 448 451 451 1 81 2
 375 1677 225 354 0 0 384 652 0 0 81 2 384 1676 225 382 0 0 327 375 0 0 81 2 327
 1675 225 325 0 0 313 384 0 0 81 2 313 1674 225 311 0 0 404 327 0 0 81 2 404 167
3 225 402 0 0 527 313 0 0 81 2 527 1672 225 221 0 0 204 404 0 0 81 2 204 1671 22
5 195 0 0 416 527 0 0 81 2 416 1670 225 414 0 0 653 204 0 0 81 2 653 1669 225 43
4 0 0 407 416 0 0 16 434 151 653 ?81 435 430 431 435 435 1 81 2 407 1668 225 389
 0 0 266 653 0 0 81 2 266 1667 225 264 0 0 531 407 0 0 81 2 531 1666 225 205 0 0
 457 266 0 0 81 2 457 1665 225 455 0 0 278 531 0 0 81 2 278 1664 225 276 0 0 356
 457 0 0 81 2 356 1663 225 353 0 0 227 278 0 0 81 2 227 1662 225 288 0 0 222 356
 0 0 17 81 0 636 78 411 79 654 434 0 655 +15 636 4 0 427 613 0 17 78 0 636 427 8
1 62 656 439 0 657 +17 411 0 636 81 427 59 658 395 0 654 +17 654 0 467 659 655 5
9 81 434 0 0 -17 655 0 467 654 69 79 463 461 0 656 -17 69 0 467 655 40 67 486 45
0 0 463 +17 463 0 631 65 656 67 655 461 0 660 +17 656 0 631 463 657 79 78 439 0
 0 -15 631 83 0 65 625 0 17 657 0 631 656 65 62 460 442 0 661 -17 65 0 631 657 4
63 63 660 455 0 460 +17 460 0 509 446 661 63 657 442 0 477 +17 661 0 509 460 93
 62 427 424 0 0 -17 93 0 509 661 662 91 102 414 0 658 +17 427 0 636 411 78 91 66
1 424 0 0 +17 662 0 509 93 663 100 99 402 0 664 -17 102 0 618 401 658 100 93 414
 0 662 -17 658 0 618 102 61 91 411 395 0 427 -15 618 209 0 658 609 0 17 61 0 618
 658 401 59 659 417 0 411 +17 401 0 618 61 102 103 664 398 0 0 +17 659 0 467 107
 654 103 61 417 0 401 -17 107 0 467 96 659 90 105 394 0 393 -17 96 0 467 468 107
 94 665 420 0 408 +17 105 0 614 664 393 103 107 394 0 659 +17 393 0 614 105 99 9
0 666 390 0 665 +15 614 216 0 393 513 667 17 99 0 614 393 664 76 662 402 0 663 +
17 666 0 621 89 665 76 393 390 0 0 -17 665 0 621 666 408 90 96 420 0 0 -15 621 2
01 0 408 617 0 17 408 0 621 665 89 94 642 389 0 438 +17 89 0 621 408 666 87 663
 405 0 642 +17 642 0 626 86 438 87 408 389 0 643 -17 438 0 626 642 84 94 468 435
 0 0 +17 643 0 509 663 638 87 86 429 0 0 -17 663 0 509 662 643 76 89 405 0 666 -
17 638 0 509 643 75 66 23 10 0 0 -16 429 145 226 ?86 424 455 421 424 424 1 81 2
 226 1660 225 429 0 0 426 222 0 0 81 2 426 1659 225 424 0 0 437 226 0 0 81 2 437
 1658 225 435 0 0 261 426 0 0 81 2 261 1657 225 39 0 0 324 437 0 0 81 2 324 1656
 225 322 0 0 297 261 0 0 81 2 297 1655 225 295 0 0 462 324 0 0 81 2 462 1654 225
 461 0 0 397 297 0 0 81 2 397 1653 225 394 0 0 318 462 0 0 81 2 318 1652 225 291
 0 0 282 397 0 0 81 2 282 1651 225 279 0 0 445 318 0 0 81 2 445 1650 225 443 0 0
 400 282 0 0 81 2 400 1649 225 398 0 0 535 445 0 0 81 2 535 1648 225 533 0 0 342
 400 0 0 81 2 342 1647 225 340 0 0 459 535 0 0 81 2 459 1646 225 442 0 0 365 342
 0 0 81 2 365 1645 225 348 0 0 335 459 0 0 81 2 335 1644 225 333 0 0 259 365 0 0
 81 2 259 1643 225 257 0 0 381 335 0 0 81 2 381 1642 225 379 0 0 301 259 0 0 81
 2 301 1641 225 299 0 0 0 381 0 0 17 75 0 509 638 32 73 480 423 0 476 +17 23 0 4
73 72 637 73 638 10 0 0 +17 72 0 473 469 23 70 476 447 0 465 +17 32 0 509 75 202
 11 28 201 0 480 +17 480 0 475 30 476 11 75 423 0 0 -16 423 852 668 ?75 443 420
 440 443 443 1 81 2 668 1718 225 423 0 0 263 308 0 0 81 2 263 1717 225 254 0 0 4
19 668 0 0 81 2 308 1719 225 306 0 0 668 286 0 0 81 2 286 1720 225 284 0 0 308 5
23 0 0 81 2 523 1721 225 217 0 0 286 525 0 0 81 2 525 1722 225 31 0 0 523 338 0
 0 81 2 338 1723 225 336 0 0 525 410 0 0 81 2 410 1724 225 395 0 0 338 422 0 0 8
1 2 422 1725 225 420 0 0 410 0 0 0 81 2 419 1716 225 417 0 0 293 263 0 0 81 2 29
3 1715 225 275 0 0 530 419 0 0 81 2 530 1714 225 212 0 0 22 293 0 0 81 2 22 1713
 225 10 0 0 369 530 0 0 81 2 369 1712 225 367 0 0 320 22 0 0 81 2 320 1711 225 3
10 0 0 216 369 0 0 81 2 216 1710 225 206 0 0 243 320 0 0 81 2 243 1709 225 241 0
 0 392 216 0 0 81 2 392 1708 225 390 0 0 359 243 0 0 81 2 359 1707 225 357 0 0 2
47 392 0 0 81 2 247 1706 225 245 0 0 466 359 0 0 17 30 0 475 220 480 184 25 31 0
 29 -17 220 0 475 517 30 177 200 221 0 0 -17 517 0 475 477 220 181 179 217 0 446
 -17 477 0 475 660 517 63 446 443 0 0 -17 179 0 516 213 183 177 517 217 0 215 +1
5 516 936 0 179 551 0 17 213 0 516 211 179 166 215 518 0 208 -17 215 0 214 200 2
08 177 213 518 0 220 +17 211 0 516 183 213 188 187 212 0 515 -17 660 0 475 486 4
77 67 65 455 0 0 -17 486 0 475 38 660 26 69 450 0 0 -17 38 0 475 481 486 156 33
 39 0 0 -17 664 0 614 99 105 100 401 398 0 0 -15 667 273 0 669 513 0 17 669 0 66
7 670 671 115 114 367 0 0 -17 670 0 667 672 669 108 366 348 0 0 -17 671 0 667 66
9 672 112 373 370 0 0 -17 114 0 606 673 117 112 669 367 0 385 +15 606 336 0 114
 601 0 17 673 0 606 128 114 124 385 382 0 674 -17 117 0 606 114 128 115 675 386
 0 366 +17 385 0 602 373 674 112 673 382 0 671 +15 602 340 0 373 597 0 17 373 0
 602 676 385 56 671 370 0 672 +17 674 0 602 385 676 124 123 357 0 0 -17 676 0 60
2 674 373 121 58 379 0 677 -17 123 0 594 120 126 121 674 357 0 676 +15 594 347 0
 352 589 0 17 120 0 594 352 123 97 677 360 0 678 +17 126 0 594 123 352 124 128 3
53 0 673 +17 352 0 594 126 120 111 679 349 0 675 +17 128 0 606 117 673 111 126 3
53 0 352 -17 679 0 610 378 675 97 352 349 0 0 -17 675 0 610 679 366 111 117 386
 0 0 -15 610 332 0 366 605 0 17 366 0 610 675 378 115 670 348 0 669 +17 378 0 61
0 366 679 108 678 363 0 670 +17 678 0 598 677 110 97 378 363 0 679 -15 598 344 0
 110 593 0 17 677 0 598 58 678 121 120 360 0 0 -17 110 0 598 678 58 108 672 354
 0 378 +17 58 0 598 110 677 56 676 379 0 373 +17 672 0 667 671 670 56 110 354 0
 0 -79 255 19 651 EDGE_PERM_ID_2_200317 49 0 582 294 328 47 339 336 0 648 -15 58
2 460 0 328 577 0 17 328 0 582 49 343 53 680 325 0 339 +17 343 0 582 328 305 131
 140 340 0 680 +17 680 0 578 136 55 131 328 325 0 0 -15 578 470 0 640 574 0 17 1
36 0 578 640 680 134 133 322 0 347 -17 55 0 578 680 640 53 332 329 0 328 -17 640
 0 578 55 136 118 321 310 0 332 -17 321 0 590 150 130 134 640 310 0 0 +17 150 0
 590 646 321 137 347 344 0 681 -17 646 0 590 645 150 151 290 288 0 287 -17 347 0
 586 133 681 134 150 344 0 321 +17 681 0 586 347 140 137 309 306 0 290 -15 586 4
56 0 133 581 0 17 140 0 586 681 133 138 343 340 0 309 -17 309 0 682 683 290 138
 681 306 0 305 +17 290 0 682 309 153 137 646 288 0 0 +15 682 617 0 683 568 0 17
 153 0 682 290 683 151 144 311 0 646 -17 683 0 682 153 309 142 305 280 0 302 -17
 144 0 569 647 287 142 153 311 0 683 +15 569 621 0 647 562 0 17 647 0 569 155 14
4 145 302 299 0 298 -17 287 0 569 144 155 151 645 284 0 0 +17 155 0 569 287 647
 141 147 314 0 645 -17 302 0 582 305 298 142 647 299 0 0 +17 298 0 582 302 294 1
45 571 295 0 0 +17 305 0 582 343 302 138 683 280 0 0 +14 568 614 684 ?562 574 68
2 5 573 +0 0 562 574 21 81 1 684 1893 498 568 685 0 634 686 687 50 573 647 0 568
 560 570 0 +-.00505 -.0124 .01007713460014302 0 0 1 1 0 0 50 560 817 0 484 506 5
73 0 +.0185 -.00375 .002 0 1 0 0 0 1 51 506 818 0 496 497 560 0 -.0185 459242549
680257e-33 .002 0 0 -1 .00375 -1 0 0 80 1 498 688 689 9000 1 1 1 1 1 1 1 1 0 FFF
FTFTFFFFFFF1 81 1 685 1777 690 568 691 684 692 693 694 81 1 634 1892 498 613 695
 0 632 684 696 81 1 686 1894 498 541 697 0 684 0 698 82 255 1 687 1883373744 14
 541 937 686 ?0 551 539 5 549 +0 0 0 551 21 81 1 697 1789 690 541 699 686 700 0
 701 82 1 698 -1652358989 80 1 690 0 702 8001 0 0 0 0 3 5 0 0 0 FFFFTFTFFFFFFF2
 81 2 699 1523 703 541 0 697 704 0 0 0 81 1 700 1788 690 551 704 553 705 697 706
 83 255 3 701 .792156862745098 .819607843137255 .933333333333333 81 2 704 1521 7
03 551 0 700 707 699 0 0 81 1 553 1870 498 551 700 0 546 554 708 81 1 705 1787 6
90 197 707 554 709 700 710 83 3 706 .792156862745098 .819607843137255 .933333333
333333 81 2 707 1519 703 197 0 705 711 704 0 0 81 1 554 1871 498 197 705 0 553 5
55 712 81 1 709 1786 690 219 711 546 545 705 713 83 3 710 .792156862745098 .8196
07843137255 .933333333333333 81 2 711 1517 703 219 0 709 714 707 0 0 81 1 546 18
69 498 219 709 0 543 553 715 81 1 545 1785 690 209 714 543 716 709 717 83 3 713
 .792156862745098 .819607843137255 .933333333333333 81 2 714 1515 703 209 0 545
 718 711 0 0 81 1 716 1784 690 495 718 500 499 545 719 83 3 717 .792156862745098
 .819607843137255 .933333333333333 81 2 718 1513 703 495 0 716 720 714 0 0 81 1
 500 1864 498 495 716 0 494 504 721 81 1 499 1783 690 493 720 494 722 716 723 83
 3 719 .792156862745098 .819607843137255 .933333333333333 81 2 720 1511 703 493
 0 499 724 718 0 0 81 1 722 1782 690 496 724 504 725 499 726 83 3 723 .792156862
745098 .819607843137255 .933333333333333 81 2 724 1509 703 496 0 722 727 720 0 0
 81 1 504 1865 498 496 722 0 500 508 728 81 1 725 1781 690 484 727 558 557 722 7
29 83 3 726 .792156862745098 .819607843137255 .933333333333333 81 2 727 1507 703
 484 0 725 730 724 0 0 81 1 558 1873 498 484 725 0 555 561 731 81 1 557 1780 690
 488 730 555 565 725 732 83 3 729 .792156862745098 .819607843137255 .93333333333
3333 81 2 730 1505 703 488 0 557 733 727 0 0 81 1 565 1779 690 556 733 561 693 5
57 734 83 3 732 .792156862745098 .819607843137255 .933333333333333 81 2 733 1503
 703 556 0 565 735 730 0 0 81 1 693 1778 690 562 735 566 685 565 736 83 3 734 .7
92156862745098 .819607843137255 .933333333333333 81 2 735 1501 703 562 0 693 691
 733 0 0 81 1 566 1875 498 562 693 0 561 576 737 83 3 736 .792156862745098 .8196
07843137255 .933333333333333 81 1 576 1876 498 574 692 0 566 580 738 82 1 737 18
83504816 81 1 692 1776 690 574 739 576 740 685 741 81 1 580 1877 498 577 740 0 5
76 584 742 82 1 738 -1306853221 81 1 740 1775 690 577 743 580 744 692 745 81 1 5
84 1878 498 581 744 0 580 588 746 82 1 742 -1305673552 81 1 744 1774 690 581 747
 584 748 740 749 81 1 588 1879 498 585 748 0 584 592 750 82 1 746 -1305411408 81
 1 748 1773 690 585 751 588 752 744 753 81 1 592 1880 498 589 752 0 588 596 754
 82 1 750 -1305149264 81 1 752 1772 690 589 755 592 756 748 757 81 1 596 1881 49
8 593 756 0 592 600 758 82 1 754 -672989052 81 1 756 1771 690 593 759 596 760 75
2 761 81 1 600 1882 498 597 760 0 596 604 762 82 1 758 -666435452 81 1 760 1770
 690 597 763 600 764 756 765 81 1 604 1883 498 601 764 0 600 608 766 82 1 762 -6
66173308 81 1 764 1769 690 601 767 604 768 760 769 81 1 608 1884 498 605 768 0 6
04 612 770 82 1 766 -665911164 81 1 768 1768 690 605 771 608 772 764 773 81 1 61
2 1885 498 513 774 0 608 616 775 82 1 770 -665649020 81 1 774 1760 690 513 776 6
12 777 695 778 81 1 616 1886 498 609 772 0 612 620 779 82 1 775 -660799356 81 1
 772 1767 690 609 780 616 781 768 782 81 1 620 1887 498 617 781 0 616 624 783 82
 1 779 -381484929 81 1 781 1766 690 617 784 620 785 772 786 81 1 624 1888 498 62
2 787 0 620 628 788 82 1 783 -380960641 81 1 787 1764 690 622 789 624 790 785 79
1 81 1 628 1889 498 478 785 0 624 629 792 82 1 788 1341718704 81 1 785 1765 690
 478 793 628 787 781 794 81 1 629 1890 498 625 790 0 628 632 795 82 1 792 134735
4803 81 1 790 1763 690 625 796 629 633 787 797 82 1 795 1348272252 81 2 796 1471
 703 625 0 790 798 789 0 0 81 1 633 1762 690 630 798 632 695 790 799 83 3 797 .7
92156862745098 .819607843137255 .933333333333333 81 2 798 1469 703 630 0 633 800
 796 0 0 81 1 695 1761 690 613 800 634 774 633 801 83 3 799 .792156862745098 .81
9607843137255 .933333333333333 81 2 800 1467 703 613 0 695 776 798 0 0 83 3 801
 .792156862745098 .819607843137255 .933333333333333 80 2 703 802 803 9000 0 0 0
 0 3 6 0 0 0 FFFFTFFFFFFFFF9 1 81 2 776 1465 703 513 0 774 804 800 0 0 81 2 804
 1463 703 472 0 777 805 776 0 0 81 1 777 1759 690 472 804 511 510 774 806 81 2 8
05 1461 703 16 0 510 0 804 0 0 81 1 510 1758 690 16 805 508 0 777 807 83 3 807 .
792156862745098 .819607843137255 .933333333333333 81 1 511 1867 498 472 777 0 50
8 543 808 83 3 806 .792156862745098 .819607843137255 .933333333333333 82 1 808 -
1644363597 79 14 803 FACE_ID_2_200181 2 789 1473 703 622 0 787 796 793 0 0 81 2
 793 1475 703 478 0 785 789 784 0 0 81 2 784 1477 703 617 0 781 793 780 0 0 81 2
 780 1479 703 609 0 772 784 771 0 0 81 2 771 1481 703 605 0 768 780 767 0 0 81 2
 767 1483 703 601 0 764 771 763 0 0 81 2 763 1485 703 597 0 760 767 759 0 0 81 2
 759 1487 703 593 0 756 763 755 0 0 81 2 755 1489 703 589 0 752 759 751 0 0 81 2
 751 1491 703 585 0 748 755 747 0 0 81 2 747 1493 703 581 0 744 751 743 0 0 81 2
 743 1495 703 577 0 740 747 739 0 0 81 2 739 1497 703 574 0 692 743 691 0 0 81 2
 691 1499 703 568 0 685 739 735 0 0 83 3 794 .792156862745098 .819607843137255 .
933333333333333 83 3 791 .792156862745098 .819607843137255 .933333333333333 83 3
 786 .792156862745098 .819607843137255 .933333333333333 83 3 782 .79215686274509
8 .819607843137255 .933333333333333 83 3 778 .792156862745098 .819607843137255 .
933333333333333 83 3 773 .792156862745098 .819607843137255 .933333333333333 83 3
 769 .792156862745098 .819607843137255 .933333333333333 83 3 765 .79215686274509
8 .819607843137255 .933333333333333 83 3 761 .792156862745098 .819607843137255 .
933333333333333 83 3 757 .792156862745098 .819607843137255 .933333333333333 83 3
 753 .792156862745098 .819607843137255 .933333333333333 83 3 749 .79215686274509
8 .819607843137255 .933333333333333 83 3 745 .792156862745098 .819607843137255 .
933333333333333 83 3 741 .792156862745098 .819607843137255 .933333333333333 82 1
 731 -1671692109 82 1 728 -1671954253 82 1 721 -1684537165 82 1 715 -1657405261
 82 1 712 -1657667405 82 1 708 -1658453837 79 15 702 SDL/TYSA_COLOUR82 1 696 -37
6242049 83 3 694 .792156862745098 .819607843137255 .933333333333333 79 14 689 SW
EntUnchanged17 133 0 586 140 347 131 136 322 0 343 +82 1 635 1348796592 82 1 567
 1883635888 82 1 559 -1650130765 82 1 547 -1648754509 15 542 941 0 809 541 0 17
 809 0 542 809 809 0 536 533 0 0 -17 536 0 810 536 536 0 809 533 0 0 +15 810 919
 0 536 478 0 81 2 304 1700 225 280 0 0 537 377 0 0 81 2 377 1701 225 363 0 0 304
 228 0 0 81 2 228 1702 225 223 0 0 377 372 0 0 81 2 372 1703 225 370 0 0 228 464
 0 0 17 190 0 203 187 193 188 202 205 0 211 +82 1 512 -1642331981 15 505 800 0 1
58 496 0 17 158 0 505 492 270 156 481 257 0 37 +17 492 0 505 491 158 169 37 264
 0 490 -17 270 0 505 158 491 160 483 267 0 481 +17 37 0 35 33 490 156 492 264 0
 38 +17 491 0 505 270 492 172 171 248 0 0 -17 483 0 482 176 162 172 270 267 0 49
1 -15 502 813 0 238 495 811 17 238 0 502 238 238 0 812 230 0 0 +15 811 814 0 813
 495 0 17 813 0 811 813 813 0 229 223 0 0 -17 229 0 479 229 229 0 813 223 0 0 +1
5 479 792 0 229 478 810 17 812 0 489 812 812 0 238 230 0 0 -15 489 788 0 812 488
 0 82 1 501 -1672216397 19 17 100 0 1 0 9 5 S0 74 4 CI16 index_map_offset0 0 1 d
CCZ20 15 11 0 0 686 814 815 816 817 818 13 699 422 697 2 0 0 0 0 0 0 0 0 0 81 2
 814 975 819 1 0 815 0 0 0 820 81 2 815 989 821 1 814 816 0 0 0 822 81 1 816 100
3 823 1 815 817 0 0 824 81 2 817 1038 825 1 816 818 0 0 826 0 81 2 818 1188 827
 1 817 13 0 0 0 828 81 2 13 1191 829 1 818 2 0 0 0 0 80 2 829 830 831 9000 0 0 0
 0 3 5 0 0 0 FFTFFFFFFFFFFF9 1 79 16 831 BODY_RECIPE_200180 2 827 832 833 9000 0
 0 0 0 3 5 0 0 0 FFTFFFFFFFFFFF9 1 82 1 828 1 79 24 833 BODY_IN_LIGHTWEIGHT_PERM
80 2 825 834 835 8004 0 0 0 0 3 5 0 0 0 FFTFFFFFFFFFFF2 3 83 1 826 1 79 16 835 S
DL/TYSA_DENSITY80 1 823 836 837 9000 1 1 1 1 1 1 1 1 0 FFTFFFFFFFFFFF1 82 1 824
 282615 79 10 837 BODY_MATCH80 2 821 838 839 9000 0 0 0 0 3 5 0 0 0 FFTFFFFFFFFF
FF9 1 82 1 822 178 79 30 839 LAST_BODY_MODIFYING_FEATURE_ID80 2 819 840 841 9000
 0 0 0 0 3 5 0 0 0 FFTFFFFFFFFFFF9 1 82 1 820 129 79 19 841 ENT_TIME_STAMP_20018
0 2 12 225 842 9000 0 0 0 0 3 5 0 0 0 FFTFFFFFFFFFFF9 1 82 1 14 108 79 12 842 AT
OM_ID_20011 0 
