M48
;Layer_Color=9474304
;FILE_FORMAT=2:4
INCH,TZ
;TYPE=PLATED
T1F00S00C0.0354
T2F00S00C0.1184
%
T01
X-51000Y1000
X-50000
X-48500
X-47500
X-45805Y1003
X-45752Y2001
X-45700Y3000
X-45648Y3999
X-45183Y18676
X-44800Y19600
X-44417Y20524
X49417
X49800Y19600
X50183Y18676
X-16176Y47683
X-17100Y47300
X-18024Y46917
X21176Y47683
X22100Y47300
X23024Y46917
T02
X-50591Y6973
X35088Y42473
X-39965Y32587
X9494Y53102
M30
