G04*
G04 #@! TF.GenerationSoftware,Altium Limited,Altium Designer,20.1.14 (287)*
G04*
G04 Layer_Physical_Order=1*
G04 Layer_Color=255*
%FSLAX25Y25*%
%MOIN*%
G70*
G04*
G04 #@! TF.SameCoordinates,07329562-CAC5-4820-BFAE-55A5BC9BA929*
G04*
G04*
G04 #@! TF.FilePolarity,Positive*
G04*
G01*
G75*
%ADD12C,0.03200*%
%ADD13R,0.05906X0.05906*%
%ADD14C,0.05906*%
%ADD15C,0.18000*%
%ADD16P,0.08352X4X112.5*%
%ADD17P,0.08352X4X67.5*%
%ADD18P,0.08352X4X382.5*%
%ADD19P,0.08352X4X337.5*%
%ADD20P,0.08352X4X132.0*%
D12*
X-481843Y65353D02*
X-456477Y39986D01*
X-481843Y65353D02*
Y126843D01*
X-427000Y181686D01*
Y276000D01*
X-384000Y319000D01*
Y346000D02*
X-303000Y427000D01*
X-384000Y319000D02*
Y346000D01*
X-291000Y427000D02*
X-266000Y452000D01*
X-303000Y427000D02*
X-291000D01*
X-307000Y435000D02*
X-295000D01*
X-268000Y456000D02*
X-164000D01*
X-293000Y431000D02*
X-268000Y456000D01*
X-305000Y431000D02*
X-293000D01*
X-295000Y435000D02*
X-270000Y460000D01*
X-203000D01*
X-388000Y348000D02*
X-305000Y431000D01*
X-164000Y456000D02*
X-85000Y535000D01*
X-203000Y460000D02*
X-184647Y478353D01*
X-412000Y330000D02*
X-307000Y435000D01*
X-412000Y303000D02*
Y330000D01*
X-266000Y452000D02*
X-162000D01*
X-486000Y49294D02*
X-479353Y42647D01*
X-457518Y30518D02*
X-457000Y30000D01*
X-464650Y30518D02*
X-457518D01*
X-476779Y42647D02*
X-464650Y30518D01*
X-479353Y42647D02*
X-476779D01*
X-486000Y49294D02*
Y128343D01*
X-431000Y183343D01*
X-435000Y185000D02*
Y215000D01*
X-490000Y47638D02*
Y130000D01*
X-435000Y185000D01*
X-431000Y278000D02*
X-388000Y321000D01*
X-431000Y183343D02*
Y278000D01*
X-455000Y235000D02*
X-435000Y215000D01*
X-388000Y321000D02*
Y348000D01*
X-455000Y260000D02*
X-412000Y303000D01*
X90382Y519618D02*
X111000Y499000D01*
X90039Y519618D02*
X90382D01*
X74657Y535000D02*
X90039Y519618D01*
X-85000Y535000D02*
X74657D01*
X-162000Y452000D02*
X-83000Y531000D01*
X73000D01*
X109000Y495000D01*
X179000D01*
X193000Y499000D02*
X207000Y485000D01*
X111000Y499000D02*
X193000D01*
X207000Y485000D02*
X216570D01*
X226353Y475217D01*
Y473791D02*
Y475217D01*
Y473791D02*
X230239Y469905D01*
Y469173D02*
Y469905D01*
X-463586Y26076D02*
X-457523Y20014D01*
X-468439Y26076D02*
X-463586D01*
X-490000Y47638D02*
X-468439Y26076D01*
X-494000Y45981D02*
X-458047Y10027D01*
X-494000Y45981D02*
Y166000D01*
X-454761Y205239D02*
X-444173D01*
X-494000Y166000D02*
X-454761Y205239D01*
X-455000Y235000D02*
Y260000D01*
X-162279Y477345D02*
X-161761Y476827D01*
X-167775Y477345D02*
X-162279D01*
X-168783Y478353D02*
X-167775Y477345D01*
X-184647Y478353D02*
X-168783D01*
X179000Y495000D02*
X212000Y462000D01*
X288000D02*
X295000Y455000D01*
X212000Y462000D02*
X288000D01*
X320000Y455000D02*
X335000Y440000D01*
X295000Y455000D02*
X320000D01*
X335000Y420000D02*
Y440000D01*
X345000Y410000D02*
X365000D01*
X335000Y420000D02*
X345000Y410000D01*
X365000D02*
X390000Y385000D01*
X405000D02*
X460000Y330000D01*
X390000Y385000D02*
X405000D01*
X460000Y310000D02*
Y330000D01*
Y310000D02*
X494000Y276000D01*
Y251000D02*
Y276000D01*
Y251000D02*
X510000Y235000D01*
Y194934D02*
Y235000D01*
X501827Y186761D02*
X510000Y194934D01*
D13*
X-485000Y10000D02*
D03*
X-500000D02*
D03*
D14*
X-475000D02*
D03*
X-510000D02*
D03*
X-448000Y196000D02*
D03*
X-444173Y205239D02*
D03*
X-171000Y473000D02*
D03*
X-161761Y476827D02*
D03*
X221000Y473000D02*
D03*
X230239Y469173D02*
D03*
X498000Y196000D02*
D03*
X501827Y186761D02*
D03*
X-456477Y39986D02*
D03*
X-457000Y30000D02*
D03*
X-457523Y20014D02*
D03*
D15*
X350885Y424725D02*
D03*
X94943Y531018D02*
D03*
X-399650Y325866D02*
D03*
X-505913Y69734D02*
D03*
D16*
X-451827Y186761D02*
D03*
D17*
X-180239Y469173D02*
D03*
D18*
X211761Y476827D02*
D03*
D19*
X494173Y205239D02*
D03*
D20*
X-458047Y10027D02*
D03*
M02*
