<svg width="32" height="20" viewBox="0 0 32 20" fill="none" xmlns="http://www.w3.org/2000/svg">
<path d="M31.9999 9.80811V15.8331C31.9999 16.9382 31.5609 17.998 30.7795 18.7794C29.9981 19.5608 28.9383 19.9997 27.8332 19.9997H8.58325C12.9779 20.0056 17.3264 19.1033 21.356 17.3495C25.3855 15.5957 29.0092 13.0282 31.9999 9.80811Z" fill="#F18A1B"/>
<path d="M27.8332 0H4.49991C2.19873 0 0.333252 1.86548 0.333252 4.16666V15.8333C0.333252 18.1345 2.19873 20 4.49991 20H27.8332C30.1344 20 31.9998 18.1345 31.9998 15.8333V4.16666C31.9998 1.86548 30.1344 0 27.8332 0Z" fill="white"/>
<path d="M17.2415 7.55818C16.8742 7.56638 16.5175 7.68279 16.216 7.89282C15.9146 8.10286 15.6818 8.39717 15.5469 8.7389C15.412 9.08063 15.3809 9.45457 15.4576 9.81388C15.5343 10.1732 15.7152 10.5019 15.9779 10.7588C16.2405 11.0157 16.5731 11.1894 16.9341 11.2581C17.295 11.3268 17.6681 11.2875 18.0068 11.1451C18.3455 11.0026 18.6346 10.7634 18.8379 10.4574C19.0412 10.1514 19.1497 9.79224 19.1498 9.42484C19.1432 8.92459 18.9387 8.44732 18.5811 8.09748C18.2234 7.74764 17.7418 7.55373 17.2415 7.55818Z" fill="#F18A1B"/>
<path d="M8.0748 7.6499H7.4248V11.1916H8.0748V7.6499Z" fill="black"/>
<path d="M6.67483 8.63346C6.57613 8.42527 6.43406 8.24059 6.25816 8.09179C6.08444 7.94134 5.88364 7.82538 5.6665 7.75012C5.44166 7.68592 5.20863 7.65504 4.97483 7.65846H3.5415V11.2001H4.8915C5.12055 11.1967 5.3479 11.1603 5.5665 11.0918C5.79329 11.0194 6.00506 10.9065 6.1915 10.7585C6.39533 10.6024 6.55909 10.4001 6.66922 10.1683C6.77935 9.93643 6.83269 9.68168 6.82483 9.42512C6.83149 9.15358 6.78036 8.88374 6.67483 8.63346ZM6.03317 10.0001C5.95073 10.1405 5.84343 10.2648 5.7165 10.3668C5.57414 10.4664 5.41222 10.5346 5.2415 10.5668C5.05427 10.6185 4.86073 10.6437 4.6665 10.6418H4.1915V8.21679H4.77483C4.96504 8.23253 5.15257 8.27172 5.33317 8.33346C5.48356 8.37973 5.62665 8.44706 5.75817 8.53346C5.88392 8.63482 5.98149 8.76683 6.0415 8.91679C6.12052 9.089 6.15765 9.27747 6.14983 9.46679C6.15336 9.65126 6.11339 9.83397 6.03317 10.0001Z" fill="black"/>
<path d="M10.7082 9.34141C10.5886 9.27213 10.4631 9.21357 10.3332 9.16642C10.1916 9.13066 10.0525 9.08613 9.9165 9.03308C9.79952 8.99632 9.68962 8.93996 9.5915 8.86642C9.54882 8.83515 9.51491 8.79343 9.49302 8.74527C9.47113 8.69711 9.462 8.64413 9.4665 8.59142C9.4651 8.51884 9.48232 8.44712 9.5165 8.38308C9.55203 8.3282 9.59721 8.28021 9.64984 8.24142C9.71006 8.20792 9.77453 8.18269 9.8415 8.16642C9.91349 8.15823 9.98618 8.15823 10.0582 8.16642C10.1837 8.16281 10.3086 8.18552 10.4248 8.23308C10.5354 8.27321 10.6313 8.34583 10.6998 8.44142L11.1748 7.95808C11.0332 7.82946 10.8655 7.73282 10.6832 7.67475C10.3402 7.57521 9.97609 7.57521 9.63317 7.67475C9.48014 7.71396 9.33592 7.78183 9.20817 7.87475C9.08283 7.96264 8.97771 8.07629 8.89984 8.20809C8.82052 8.35366 8.78032 8.51732 8.78317 8.68308C8.77721 8.85927 8.82361 9.03326 8.9165 9.18308C8.99848 9.30535 9.10666 9.40782 9.23317 9.48308C9.365 9.55911 9.50471 9.62058 9.64984 9.66642C9.791 9.70341 9.93008 9.74792 10.0665 9.79975C10.1799 9.84252 10.2866 9.90146 10.3832 9.97475C10.4272 10.011 10.4621 10.0569 10.4853 10.109C10.5084 10.1611 10.5191 10.2178 10.5165 10.2747C10.515 10.3506 10.4949 10.425 10.4582 10.4914C10.4168 10.5494 10.3661 10.6001 10.3082 10.6414C10.2453 10.6852 10.1746 10.7163 10.0998 10.7331C10.0251 10.7411 9.94962 10.7411 9.87483 10.7331C9.7327 10.7328 9.5927 10.6985 9.4665 10.6331C9.34227 10.5687 9.23623 10.4742 9.15817 10.3581L8.6665 10.8331C8.81109 11.0034 8.99788 11.1327 9.20817 11.2081C9.41687 11.2818 9.63685 11.3184 9.85817 11.3164C10.0298 11.3164 10.2007 11.294 10.3665 11.2497C10.5218 11.2083 10.6667 11.1344 10.7915 11.0331C10.9166 10.9428 11.0169 10.8224 11.0832 10.6831C11.1599 10.5279 11.1972 10.3561 11.1915 10.1831C11.2 10.0077 11.1565 9.83381 11.0665 9.68308C10.9773 9.54118 10.8541 9.42375 10.7082 9.34141Z" fill="black"/>
<path d="M23.7083 9.65823H25.3833V9.09157H23.7083V8.21657H25.475V7.6499H23.0667V11.1916H25.5666V10.6249H23.7083V9.65823Z" fill="black"/>
<path d="M27.9832 9.62467C28.1031 9.6159 28.2201 9.58339 28.3274 9.52903C28.4347 9.47467 28.5301 9.39954 28.6082 9.30801C28.7554 9.12725 28.8323 8.89936 28.8248 8.66634C28.8323 8.49313 28.795 8.32093 28.7165 8.16634C28.6357 8.04373 28.5308 7.93883 28.4082 7.85801C28.2735 7.7798 28.1272 7.72354 27.9748 7.69134C27.8056 7.67841 27.6357 7.67841 27.4665 7.69134H26.1665V11.233H26.8165V9.69134H27.2998L28.1332 11.1997H28.9165L27.9832 9.62467ZM27.6332 9.16634H26.8498V8.19134H27.4165H27.6665C27.7467 8.1994 27.8253 8.21905 27.8998 8.24968C27.9736 8.27778 28.0374 8.32707 28.0832 8.39134C28.1337 8.46756 28.1572 8.55853 28.1498 8.64968C28.1549 8.74324 28.1317 8.83616 28.0832 8.91634C28.0313 8.98003 27.9658 9.03128 27.8915 9.06634L27.6332 9.16634Z" fill="black"/>
<path d="M13.9915 10.6085C13.8585 10.6805 13.7095 10.7177 13.5582 10.7169C13.3057 10.727 13.0566 10.6555 12.8479 10.5129C12.6392 10.3703 12.4821 10.1642 12.3999 9.92519C12.3391 9.75684 12.3081 9.57918 12.3082 9.40019C12.308 9.22933 12.3391 9.05987 12.3999 8.90019C12.4571 8.7522 12.5419 8.61645 12.6499 8.50019C12.7635 8.38276 12.8995 8.28926 13.0499 8.22519C13.2121 8.16299 13.3845 8.1319 13.5582 8.13353C13.686 8.13535 13.8126 8.15787 13.9332 8.20019C14.0827 8.26514 14.2164 8.36182 14.3249 8.48353L14.8249 8.12519C14.6694 7.93462 14.4689 7.7857 14.2415 7.69186C14.0231 7.59865 13.7873 7.55319 13.5499 7.55853C13.2886 7.55861 13.0292 7.60371 12.7832 7.69186C12.5549 7.77385 12.3473 7.90468 12.1749 8.07519C11.9973 8.23859 11.8603 8.44119 11.7749 8.66686C11.6754 8.90994 11.6272 9.17094 11.6332 9.43352C11.6264 9.69347 11.6746 9.95191 11.7749 10.1919C11.8625 10.414 11.9993 10.6134 12.1749 10.7752C12.3461 10.9454 12.5542 11.0737 12.7832 11.1502C13.0282 11.2422 13.2882 11.2874 13.5499 11.2835C13.8103 11.2863 14.0684 11.2352 14.3082 11.1335C14.5509 11.0341 14.7594 10.8662 14.9082 10.6502L14.3749 10.2835C14.2728 10.419 14.1419 10.53 13.9915 10.6085Z" fill="black"/>
<path d="M20.9499 10.3249L19.9582 7.6499H19.2083L20.6416 11.1916H21.1999L22.6749 7.6499H21.9749L20.9499 10.3249Z" fill="black"/>
<path d="M31.9999 9.80811V15.8331C31.9999 16.9382 31.5609 17.998 30.7795 18.7794C29.9981 19.5608 28.9383 19.9997 27.8332 19.9997H8.58325C12.9779 20.0056 17.3264 19.1033 21.356 17.3495C25.3855 15.5957 29.0092 13.0282 31.9999 9.80811Z" fill="#F18A1B"/>
</svg>
