<svg width="32" height="20" viewBox="0 0 32 20" fill="none" xmlns="http://www.w3.org/2000/svg">
<path d="M27.5001 0.416504H4.16675C2.09568 0.416504 0.416748 2.09544 0.416748 4.1665V15.8332C0.416748 17.9042 2.09568 19.5832 4.16675 19.5832H27.5001C29.5711 19.5832 31.2501 17.9042 31.2501 15.8332V4.1665C31.2501 2.09544 29.5711 0.416504 27.5001 0.416504Z" fill="white"/>
<path d="M27.5 0.833333C28.3841 0.833333 29.2319 1.18452 29.857 1.80964C30.4821 2.43477 30.8333 3.28261 30.8333 4.16667V15.8333C30.8333 16.7174 30.4821 17.5652 29.857 18.1904C29.2319 18.8155 28.3841 19.1667 27.5 19.1667H4.16667C3.28261 19.1667 2.43477 18.8155 1.80964 18.1904C1.18452 17.5652 0.833333 16.7174 0.833333 15.8333V4.16667C0.833333 3.28261 1.18452 2.43477 1.80964 1.80964C2.43477 1.18452 3.28261 0.833333 4.16667 0.833333H27.5ZM27.5 0H4.16667C3.0616 0 2.00179 0.438987 1.22039 1.22039C0.438987 2.00179 0 3.0616 0 4.16667L0 15.8333C0 16.9384 0.438987 17.9982 1.22039 18.7796C2.00179 19.561 3.0616 20 4.16667 20H27.5C28.6051 20 29.6649 19.561 30.4463 18.7796C31.2277 17.9982 31.6667 16.9384 31.6667 15.8333V4.16667C31.6667 3.0616 31.2277 2.00179 30.4463 1.22039C29.6649 0.438987 28.6051 0 27.5 0Z" fill="#F4F4F4"/>
<path d="M22.7583 9.99986C22.7575 10.8033 22.5122 11.5874 22.0551 12.2481C21.598 12.9088 20.9506 13.4148 20.1991 13.6988C19.4475 13.9828 18.6273 14.0313 17.8475 13.838C17.0677 13.6447 16.3651 13.2187 15.8333 12.6165C16.4718 11.8944 16.8243 10.9638 16.8243 9.99986C16.8243 9.03594 16.4718 8.10528 15.8333 7.38319C16.3651 6.78105 17.0677 6.35502 17.8475 6.1617C18.6273 5.96839 19.4475 6.01695 20.1991 6.30093C20.9506 6.58491 21.598 7.09087 22.0551 7.75158C22.5122 8.41228 22.7575 9.19644 22.7583 9.99986Z" fill="#F79E1B"/>
<path d="M15.8335 12.6166C16.3811 12.6166 16.8251 11.4451 16.8251 9.99997C16.8251 8.55482 16.3811 7.3833 15.8335 7.3833C15.2858 7.3833 14.8418 8.55482 14.8418 9.99997C14.8418 11.4451 15.2858 12.6166 15.8335 12.6166Z" fill="#FF5F00"/>
<path d="M14.8418 9.99984C14.8435 10.9636 15.196 11.8937 15.8335 12.6165C15.3018 13.2199 14.599 13.6471 13.8186 13.8412C13.0382 14.0353 12.2172 13.987 11.4648 13.7029C10.7125 13.4187 10.0646 12.9122 9.60727 12.2507C9.14998 11.5892 8.90503 10.804 8.90503 9.99984C8.90503 9.19564 9.14998 8.41052 9.60727 7.749C10.0646 7.08748 10.7125 6.58093 11.4648 6.2968C12.2172 6.01266 13.0382 5.96442 13.8186 6.1585C14.599 6.35257 15.3018 6.77975 15.8335 7.38317C15.196 8.10597 14.8435 9.03611 14.8418 9.99984Z" fill="#EB001B"/>
</svg>
