<svg width="33" height="20" viewBox="0 0 33 20" fill="none" xmlns="http://www.w3.org/2000/svg">
<path d="M28.1668 0.416504H4.8335C2.76243 0.416504 1.0835 2.09544 1.0835 4.1665V15.8332C1.0835 17.9042 2.76243 19.5832 4.8335 19.5832H28.1668C30.2379 19.5832 31.9168 17.9042 31.9168 15.8332V4.1665C31.9168 2.09544 30.2379 0.416504 28.1668 0.416504Z" fill="white"/>
<path d="M28.1667 0.833333C29.0508 0.833333 29.8986 1.18452 30.5238 1.80964C31.1489 2.43477 31.5001 3.28261 31.5001 4.16667V15.8333C31.5001 16.7174 31.1489 17.5652 30.5238 18.1904C29.8986 18.8155 29.0508 19.1667 28.1667 19.1667H4.83341C3.94936 19.1667 3.10151 18.8155 2.47639 18.1904C1.85127 17.5652 1.50008 16.7174 1.50008 15.8333V4.16667C1.50008 3.28261 1.85127 2.43477 2.47639 1.80964C3.10151 1.18452 3.94936 0.833333 4.83341 0.833333H28.1667ZM28.1667 0H4.83341C3.72835 0 2.66854 0.438987 1.88714 1.22039C1.10573 2.00179 0.666748 3.0616 0.666748 4.16667L0.666748 15.8333C0.666748 16.9384 1.10573 17.9982 1.88714 18.7796C2.66854 19.561 3.72835 20 4.83341 20H28.1667C29.2718 20 30.3316 19.561 31.113 18.7796C31.8944 17.9982 32.3334 16.9384 32.3334 15.8333V4.16667C32.3334 3.0616 31.8944 2.00179 31.113 1.22039C30.3316 0.438987 29.2718 0 28.1667 0Z" fill="#F4F4F4"/>
<path d="M9.35018 7.50007C9.18486 7.33982 8.98675 7.21735 8.7695 7.14109C8.55226 7.06484 8.32105 7.03663 8.09185 7.0584H6.42518C6.36694 7.05953 6.31091 7.08097 6.26679 7.119C6.22267 7.15704 6.19321 7.20929 6.18351 7.26674L5.44185 11.6667C5.43949 11.6878 5.44162 11.7091 5.4481 11.7293C5.45458 11.7494 5.46525 11.768 5.47942 11.7838C5.49359 11.7995 5.51094 11.8121 5.53032 11.8206C5.54969 11.8292 5.57066 11.8335 5.59185 11.8334H6.42518C6.47503 11.8313 6.5231 11.8142 6.5632 11.7845C6.6033 11.7548 6.63359 11.7138 6.65018 11.6667L6.83351 10.4667C6.8397 10.4093 6.86699 10.3562 6.9101 10.3177C6.95321 10.2792 7.00906 10.2581 7.06685 10.2584H7.60851C7.84811 10.2861 8.09085 10.2642 8.32162 10.194C8.55239 10.1239 8.76627 10.0071 8.94995 9.85073C9.13362 9.69441 9.28318 9.50197 9.38931 9.28538C9.49543 9.06879 9.55587 8.83268 9.56685 8.59174C9.6138 8.40508 9.61871 8.21033 9.58125 8.02154C9.54378 7.83276 9.46486 7.65465 9.35018 7.50007ZM8.29185 8.6584C8.20018 9.27507 7.72518 9.27507 7.27518 9.27507H7.01685L7.19185 8.11674C7.19755 8.08282 7.21474 8.05189 7.24053 8.02913C7.26632 8.00637 7.29915 7.99317 7.33351 7.99174H7.45018C7.75851 7.99174 8.05851 7.99174 8.20018 8.16674C8.25206 8.23621 8.2873 8.31667 8.30319 8.40191C8.31908 8.48715 8.3152 8.5749 8.29185 8.6584Z" fill="#253B80"/>
<path d="M13.2417 8.63356H12.4084C12.3744 8.6354 12.3419 8.64757 12.3151 8.66842C12.2883 8.68927 12.2685 8.71781 12.2584 8.75022V8.99189L12.2 8.90022C12.0739 8.77326 11.9207 8.67654 11.7518 8.61736C11.5829 8.55818 11.4028 8.53808 11.225 8.55856C10.7691 8.56912 10.3322 8.74329 9.99413 9.04928C9.65602 9.35526 9.43923 9.77265 9.38335 10.2252C9.3412 10.4474 9.3469 10.6761 9.40006 10.896C9.45323 11.1158 9.55265 11.3218 9.69168 11.5002C9.82204 11.6445 9.98368 11.7571 10.1642 11.8293C10.3448 11.9015 10.5394 11.9315 10.7334 11.9169C10.9447 11.9192 11.1542 11.8782 11.3491 11.7965C11.544 11.7148 11.7201 11.5941 11.8667 11.4419V11.6836C11.8643 11.722 11.8768 11.7599 11.9017 11.7894C11.9265 11.8189 11.9617 11.8377 12 11.8419H12.7417C12.7996 11.8445 12.8565 11.8255 12.9011 11.7886C12.9458 11.7516 12.9751 11.6993 12.9833 11.6419L13.425 8.80022C13.4344 8.77524 13.4361 8.74801 13.4298 8.72207C13.4235 8.69613 13.4096 8.67266 13.3899 8.65471C13.3701 8.63676 13.3454 8.62514 13.319 8.62137C13.2926 8.6176 13.2657 8.62185 13.2417 8.63356ZM11.1584 11.0419C11.0565 11.0475 10.9546 11.0311 10.8597 10.9937C10.7647 10.9563 10.679 10.8988 10.6084 10.8252C10.5475 10.7406 10.5043 10.6446 10.4814 10.543C10.4585 10.4413 10.4563 10.3361 10.475 10.2336C10.5014 10.0059 10.6099 9.79562 10.7801 9.64221C10.9504 9.4888 11.1708 9.40276 11.4 9.40022C11.5033 9.39553 11.6063 9.41406 11.7015 9.45444C11.7967 9.49482 11.8816 9.55603 11.95 9.63355C12.0182 9.71259 12.0666 9.80671 12.0912 9.90813C12.1158 10.0096 12.116 10.1154 12.0917 10.2169C12.0668 10.4459 11.9573 10.6575 11.7847 10.81C11.6121 10.9626 11.3887 11.0453 11.1584 11.0419Z" fill="#253B80"/>
<path d="M17.625 8.6334H16.7917C16.7519 8.6329 16.7126 8.64258 16.6776 8.66155C16.6426 8.68051 16.613 8.70811 16.5917 8.74173L15.45 10.4084L14.9667 8.7834C14.951 8.73348 14.92 8.68974 14.8782 8.65835C14.8363 8.62695 14.7857 8.60948 14.7334 8.6084H13.9C13.877 8.60827 13.8544 8.61374 13.834 8.62432C13.8136 8.63491 13.7961 8.6503 13.7829 8.66916C13.7698 8.68803 13.7615 8.7098 13.7586 8.73261C13.7558 8.75541 13.7586 8.77857 13.7667 8.80007L14.675 11.5001L13.8417 12.7167C13.8262 12.738 13.817 12.7632 13.815 12.7894C13.813 12.8157 13.8184 12.8419 13.8305 12.8653C13.8426 12.8887 13.861 12.9082 13.8836 12.9217C13.9061 12.9352 13.932 12.9421 13.9584 12.9417H14.7917C14.8308 12.9439 14.8699 12.9359 14.905 12.9183C14.9401 12.9008 14.97 12.8744 14.9917 12.8417L17.7417 8.8334C17.7511 8.81276 17.7554 8.79015 17.7543 8.76749C17.7532 8.74482 17.7466 8.72276 17.7352 8.70316C17.7238 8.68356 17.7078 8.66699 17.6886 8.65485C17.6694 8.64271 17.6476 8.63535 17.625 8.6334Z" fill="#253B80"/>
<path d="M21.6251 7.50024C21.4595 7.34045 21.2613 7.21827 21.0442 7.14205C20.827 7.06583 20.5959 7.03736 20.3668 7.05857H18.6418C18.5849 7.05841 18.53 7.07982 18.4883 7.11847C18.4465 7.15713 18.421 7.21016 18.4168 7.2669L17.7084 11.6669C17.7061 11.688 17.7082 11.7093 17.7147 11.7294C17.7212 11.7496 17.7319 11.7682 17.746 11.7839C17.7602 11.7997 17.7775 11.8122 17.7969 11.8208C17.8163 11.8293 17.8373 11.8337 17.8584 11.8336H18.7418C18.7818 11.8318 18.8198 11.8156 18.8489 11.7881C18.878 11.7605 18.8961 11.7234 18.9001 11.6836L19.1001 10.4252C19.108 10.3685 19.1358 10.3164 19.1785 10.2782C19.2213 10.2401 19.2762 10.2183 19.3334 10.2169H19.8834C20.1226 10.2421 20.3644 10.2185 20.5941 10.1474C20.8239 10.0763 21.0368 9.95928 21.2199 9.80341C21.4031 9.64755 21.5526 9.4561 21.6595 9.24067C21.7664 9.02525 21.8284 8.79035 21.8418 8.55024C21.8788 8.36967 21.8787 8.18347 21.8414 8.00296C21.8042 7.82244 21.7306 7.6514 21.6251 7.50024ZM20.5584 8.68357C20.4751 9.30024 20.0001 9.30024 19.5418 9.30024H19.2834L19.4668 8.1419C19.4678 8.12438 19.4724 8.10724 19.4801 8.09147C19.4878 8.07569 19.4985 8.0616 19.5117 8.04998C19.5248 8.03837 19.5401 8.02947 19.5568 8.02379C19.5734 8.01811 19.5909 8.01577 19.6084 8.0169H19.7334C20.0418 8.0169 20.3334 8.0169 20.4834 8.1919C20.5288 8.25971 20.559 8.3365 20.5719 8.41704C20.5849 8.49758 20.5803 8.57997 20.5584 8.65857V8.68357Z" fill="#179BD7"/>
<path d="M25.5084 8.63345H24.6751C24.6404 8.63258 24.6066 8.64373 24.5792 8.665C24.5519 8.68626 24.5327 8.71634 24.5251 8.75011V8.99178L24.4667 8.90011C24.3426 8.77279 24.1909 8.67575 24.0232 8.6165C23.8556 8.55725 23.6766 8.53739 23.5001 8.55845C23.0442 8.56901 22.6073 8.74318 22.2692 9.04917C21.9311 9.35515 21.7143 9.77254 21.6584 10.2251C21.6117 10.4472 21.6151 10.6769 21.6685 10.8975C21.7218 11.118 21.8237 11.3239 21.9667 11.5001C22.095 11.6447 22.2551 11.7576 22.4344 11.8299C22.6137 11.9022 22.8073 11.932 23.0001 11.9168C23.2126 11.9187 23.4232 11.8776 23.6194 11.796C23.8157 11.7144 23.9933 11.5939 24.1417 11.4418V11.6834C24.1394 11.7034 24.1413 11.7236 24.1473 11.7428C24.1534 11.7619 24.1634 11.7796 24.1768 11.7946C24.1902 11.8096 24.2067 11.8215 24.225 11.8296C24.2434 11.8378 24.2633 11.8419 24.2834 11.8418H25.0251C25.0816 11.8424 25.1364 11.8224 25.1793 11.7856C25.2222 11.7488 25.2503 11.6977 25.2584 11.6418L25.6667 8.80011C25.6709 8.77805 25.6697 8.75531 25.6634 8.73378C25.6571 8.71224 25.6457 8.69252 25.6302 8.67624C25.6148 8.65996 25.5956 8.64759 25.5745 8.64015C25.5533 8.63271 25.5306 8.63041 25.5084 8.63345ZM23.4334 11.0418C23.3302 11.0481 23.2269 11.032 23.1305 10.9946C23.0341 10.9572 22.947 10.8994 22.8751 10.8251C22.8138 10.7408 22.771 10.6445 22.7495 10.5426C22.728 10.4407 22.7282 10.3353 22.7501 10.2334C22.7727 10.0058 22.879 9.79457 23.0483 9.64066C23.2176 9.48675 23.4379 9.40105 23.6667 9.40011C23.7728 9.39078 23.8796 9.40731 23.9778 9.4483C24.0761 9.48929 24.163 9.55351 24.231 9.63545C24.299 9.71739 24.3461 9.81461 24.3683 9.91877C24.3905 10.0229 24.3871 10.1309 24.3584 10.2334C24.3334 10.4595 24.2245 10.668 24.0532 10.8177C23.882 10.9674 23.6608 11.0473 23.4334 11.0418Z" fill="#179BD7"/>
<path d="M27.4168 7.03353H26.5835C26.5494 7.03114 26.5158 7.04191 26.4894 7.06361C26.4631 7.08532 26.446 7.11631 26.4418 7.1502L25.7752 11.6669C25.7715 11.6874 25.7724 11.7086 25.7778 11.7288C25.7833 11.749 25.7931 11.7677 25.8067 11.7836C25.8202 11.7996 25.8371 11.8123 25.8562 11.8209C25.8752 11.8296 25.8959 11.8339 25.9168 11.8335H26.6252C26.6817 11.8341 26.7365 11.8142 26.7794 11.7774C26.8223 11.7406 26.8504 11.6895 26.8585 11.6335L27.5585 7.19186C27.5609 7.17191 27.559 7.15168 27.5529 7.13252C27.5469 7.11336 27.5368 7.09571 27.5234 7.08073C27.51 7.06576 27.4936 7.0538 27.4752 7.04567C27.4568 7.03753 27.4369 7.03339 27.4168 7.03353Z" fill="#179BD7"/>
</svg>
