M48
;Layer_Color=9474304
;FILE_FORMAT=2:4
INCH,TZ
;TYPE=PLATED
T1F00S00C0.0354
T2F00S00C0.1184
%
T01
X50940Y1205
X50870Y2202
X50800Y3200
X50730Y4198
X55000Y1000
X56000
X-45183Y18576
X-44800Y19500
X-44417Y20424
X49417
X49800Y19500
X50183Y18576
X33800Y42200
X32100Y45100
X31393Y44393
X30686Y43686
X-16176Y47683
X-17100Y47300
X-18024Y46917
T02
X-50580Y7007
X35097Y42475
X-39996Y32576
X9486Y53085
M30
