G04*
G04 #@! TF.GenerationSoftware,Altium Limited,Altium Designer,20.1.14 (287)*
G04*
G04 Layer_Physical_Order=1*
G04 Layer_Color=255*
%FSLAX24Y24*%
%MOIN*%
G70*
G04*
G04 #@! TF.SameCoordinates,F37E473B-A4F1-4144-8FAB-8DA16429EA7E*
G04*
G04*
G04 #@! TF.FilePolarity,Positive*
G04*
G01*
G75*
%ADD12C,0.0320*%
%ADD13C,0.1800*%
%ADD14P,0.0835X4X157.5*%
%ADD15C,0.0591*%
%ADD16P,0.0835X4X270.0*%
%ADD17P,0.0835X4X67.5*%
%ADD18P,0.0835X4X112.5*%
%ADD19R,0.0591X0.0591*%
%ADD20P,0.0835X4X139.0*%
%ADD21C,0.0591*%
G54D12*
X-44000Y26000D02*
Y26800D01*
X-24800Y46000D01*
X-15500D01*
X33800Y42200D02*
Y43200D01*
X32654Y44346D02*
X33800Y43200D01*
X31439Y44346D02*
X32654D01*
X33200Y40800D02*
X37700D01*
X32267Y40400D02*
X37500D01*
X32100Y40000D02*
X37300D01*
X46200Y31100D01*
X29600Y42500D02*
X32100Y40000D01*
X37500Y40400D02*
X46600Y31300D01*
X29667Y43000D02*
X32267Y40400D01*
X37700Y40800D02*
X47000Y31500D01*
X33000Y41000D02*
X33200Y40800D01*
X33000Y41000D02*
Y41900D01*
X31214Y43686D02*
X33000Y41900D01*
X46200Y29500D02*
Y31100D01*
X46600Y29700D02*
Y31300D01*
X47000Y30000D02*
Y31500D01*
X31393Y44393D02*
X31439Y44346D01*
X30686Y43686D02*
X31214D01*
X29000Y43000D02*
X29667D01*
X28000Y44000D02*
X29000Y43000D01*
X28800Y42500D02*
X29600D01*
X27800Y43500D02*
X28800Y42500D01*
X-11500Y53000D02*
X7500D01*
X9100Y51400D01*
X13533Y49933D02*
Y51213D01*
X9100Y51400D02*
X13345D01*
X13533Y51213D01*
X8800Y51000D02*
X11900D01*
X14400Y48500D01*
X7200Y52600D02*
X8800Y51000D01*
X-11300Y52600D02*
X7200D01*
X-13800Y50100D02*
X-11300Y52600D01*
X14400Y48500D02*
X15800D01*
X48400Y12800D02*
X50000Y11200D01*
X47000Y17200D02*
X48400Y15800D01*
Y12800D02*
Y15800D01*
X47400Y17400D02*
X48800Y16000D01*
Y13000D02*
Y16000D01*
Y13000D02*
X50400Y11400D01*
X49265Y16729D02*
X49600Y16393D01*
Y13400D02*
X52500Y10500D01*
X49600Y13400D02*
Y16393D01*
X50940Y1205D02*
X51665Y1930D01*
X51930D01*
X52500Y2500D01*
Y10500D01*
X50902Y2202D02*
X52100Y3400D01*
X49200Y13200D02*
X52100Y10300D01*
Y3400D02*
Y10300D01*
X50870Y2202D02*
X50902D01*
X49200Y13200D02*
Y16200D01*
X49265Y19722D02*
X49366Y19823D01*
Y20372D01*
X49265Y16729D02*
Y19722D01*
X49366Y20372D02*
X49417Y20424D01*
X47833Y17567D02*
X49200Y16200D01*
X47833Y17567D02*
Y20967D01*
X47000Y17200D02*
Y21300D01*
X47400Y17400D02*
Y21100D01*
X50000Y23134D02*
Y27000D01*
X47833Y20967D02*
X50000Y23134D01*
X47000Y30000D02*
X50000Y27000D01*
X50800Y3200D02*
X50873D01*
X51378Y3704D01*
X51404D01*
X51700Y4000D01*
X50433Y6633D02*
X51700Y5366D01*
Y4000D02*
Y5366D01*
X50433Y6633D02*
Y9000D01*
X50400Y9033D02*
Y11400D01*
Y9033D02*
X50433Y9000D01*
X50000Y6500D02*
Y11200D01*
Y6500D02*
X50730Y5770D01*
X47000Y21300D02*
X49200Y23500D01*
X47400Y21100D02*
X49600Y23300D01*
X46600Y29700D02*
X49600Y26700D01*
Y23300D02*
Y26700D01*
X46200Y29500D02*
X49200Y26500D01*
Y23500D02*
Y26500D01*
X26000Y44000D02*
X28000D01*
X24000Y46000D02*
X26000Y44000D01*
X20500Y47500D02*
X22000Y46000D01*
X24000D01*
X21800Y45500D02*
X23800D01*
X20300Y47000D02*
X21800Y45500D01*
X23800D02*
X25800Y43500D01*
X27800D01*
X17500Y47500D02*
X20500D01*
X16000Y49000D02*
X17500Y47500D01*
X14466Y49000D02*
X16000D01*
X13533Y49933D02*
X14466Y49000D01*
X-14000Y50500D02*
X-11500Y53000D01*
X-14500Y49913D02*
X-14313Y50100D01*
X-14500Y47000D02*
Y49913D01*
X-15500Y46000D02*
X-14500Y47000D01*
X-14313Y50100D02*
X-13800D01*
X-14700Y50500D02*
X-14000D01*
X-16176Y47683D02*
Y49024D01*
X-14700Y50500D01*
X50730Y4198D02*
Y5770D01*
X17300Y47000D02*
X20300D01*
X15800Y48500D02*
X17300Y47000D01*
X-44417Y20424D02*
Y25583D01*
X-44000Y26000D01*
G54D13*
X-39996Y32576D02*
D03*
X-50580Y7007D02*
D03*
X35097Y42475D02*
D03*
X9486Y53085D02*
D03*
G54D14*
X50183Y18576D02*
D03*
G54D15*
X49800Y19500D02*
D03*
X49417Y20424D02*
D03*
X31393Y44393D02*
D03*
X30686Y43686D02*
D03*
X-17100Y47300D02*
D03*
X-16176Y47683D02*
D03*
X-44800Y19500D02*
D03*
X-44417Y20424D02*
D03*
X56000Y1000D02*
D03*
X50730Y4198D02*
D03*
X50800Y3200D02*
D03*
X50870Y2202D02*
D03*
G54D16*
X32100Y45100D02*
D03*
G54D17*
X-18024Y46917D02*
D03*
G54D18*
X-45183Y18576D02*
D03*
G54D19*
X55000Y1000D02*
D03*
G54D20*
X50940Y1205D02*
D03*
G54D21*
X33800Y42200D02*
D03*
M02*
