G04*
G04 #@! TF.GenerationSoftware,Altium Limited,Altium Designer,20.1.14 (287)*
G04*
G04 Layer_Color=65535*
%FSLAX24Y24*%
%MOIN*%
G70*
G04*
G04 #@! TF.SameCoordinates,F37E473B-A4F1-4144-8FAB-8DA16429EA7E*
G04*
G04*
G04 #@! TF.FilePolarity,Positive*
G04*
G01*
G75*
%ADD10C,0.0079*%
%ADD11C,0.0100*%
G54D10*
X49688Y21077D02*
X50836Y18306D01*
X48764Y20694D02*
X49688Y21077D01*
X48764Y20694D02*
X49912Y17923D01*
X50836Y18306D01*
X29979Y43686D02*
X32100Y45807D01*
X29979Y43686D02*
X30686Y42979D01*
X32807Y45100D01*
X32100Y45807D02*
X32807Y45100D01*
X-18294Y46264D02*
X-15523Y47412D01*
X-15906Y48336D02*
X-15523Y47412D01*
X-18677Y47188D02*
X-15906Y48336D01*
X-18677Y47188D02*
X-18294Y46264D01*
X-44912Y17923D02*
X-43764Y20694D01*
X-44688Y21077D02*
X-43764Y20694D01*
X-45836Y18306D02*
X-44688Y21077D01*
X-45836Y18306D02*
X-44912Y17923D01*
X56500Y500D02*
Y1500D01*
X54500Y500D02*
X56500D01*
X54500D02*
Y1500D01*
X56500D01*
X50476Y671D02*
X51473Y741D01*
X50197Y4661D02*
X50476Y671D01*
X51194Y4731D02*
X51473Y741D01*
X50197Y4661D02*
X51194Y4731D01*
G54D11*
X48813Y21432D02*
Y22032D01*
X49113D01*
X49213Y21932D01*
Y21732D01*
X49113Y21632D01*
X48813D01*
X49713Y21432D02*
Y22032D01*
X49413Y21732D01*
X49813D01*
X30027Y46163D02*
Y46763D01*
X30327D01*
X30427Y46663D01*
Y46463D01*
X30327Y46363D01*
X30027D01*
X30627Y46663D02*
X30727Y46763D01*
X30927D01*
X31027Y46663D01*
Y46563D01*
X30927Y46463D01*
X30827D01*
X30927D01*
X31027Y46363D01*
Y46263D01*
X30927Y46163D01*
X30727D01*
X30627Y46263D01*
X-18634Y48684D02*
Y49283D01*
X-18334D01*
X-18234Y49183D01*
Y48983D01*
X-18334Y48883D01*
X-18634D01*
X-17634Y48684D02*
X-18034D01*
X-17634Y49083D01*
Y49183D01*
X-17734Y49283D01*
X-17934D01*
X-18034Y49183D01*
X-45792Y21432D02*
Y22032D01*
X-45492D01*
X-45392Y21932D01*
Y21732D01*
X-45492Y21632D01*
X-45792D01*
X-45193Y21432D02*
X-44993D01*
X-45093D01*
Y22032D01*
X-45193Y21932D01*
X54560Y1836D02*
Y2436D01*
X54860D01*
X54960Y2336D01*
Y2136D01*
X54860Y2036D01*
X54560D01*
X55560Y2436D02*
X55160D01*
Y2136D01*
X55360Y2236D01*
X55460D01*
X55560Y2136D01*
Y1936D01*
X55460Y1836D01*
X55260D01*
X55160Y1936D01*
X50253Y5069D02*
Y5669D01*
X50552D01*
X50652Y5569D01*
Y5369D01*
X50552Y5269D01*
X50253D01*
X51252Y5669D02*
X51052Y5569D01*
X50852Y5369D01*
Y5169D01*
X50952Y5069D01*
X51152D01*
X51252Y5169D01*
Y5269D01*
X51152Y5369D01*
X50852D01*
M02*
