G04*
G04 #@! TF.GenerationSoftware,Altium Limited,Altium Designer,20.1.14 (287)*
G04*
G04 Layer_Physical_Order=2*
G04 Layer_Color=16711680*
%FSLAX24Y24*%
%MOIN*%
G70*
G04*
G04 #@! TF.SameCoordinates,F37E473B-A4F1-4144-8FAB-8DA16429EA7E*
G04*
G04*
G04 #@! TF.FilePolarity,Positive*
G04*
G01*
G75*
%ADD12C,0.0320*%
%ADD13C,0.1800*%
%ADD14P,0.0835X4X157.5*%
%ADD15C,0.0591*%
%ADD16P,0.0835X4X270.0*%
%ADD17P,0.0835X4X67.5*%
%ADD18P,0.0835X4X112.5*%
%ADD19R,0.0591X0.0591*%
%ADD20P,0.0835X4X139.0*%
%ADD21C,0.0591*%
G54D12*
X-44000Y26000D02*
Y26800D01*
X-23883Y46917D02*
X-18024D01*
X-44000Y26800D02*
X-23883Y46917D01*
X-43567Y25833D02*
Y26633D01*
X-24200Y46000D01*
X-17500D01*
X37500Y40400D02*
X46600Y31300D01*
X35559Y40400D02*
X37500D01*
X33800Y42159D02*
Y42200D01*
Y42159D02*
X35559Y40400D01*
X36718Y41782D02*
Y42466D01*
Y41782D02*
X47000Y31500D01*
X35484Y43700D02*
X36237Y42947D01*
X47000Y30000D02*
Y31500D01*
X36237Y42947D02*
Y42947D01*
Y42947D02*
X36718Y42466D01*
X29100Y42200D02*
X33800D01*
X27800Y43500D02*
X29100Y42200D01*
X32000Y43700D02*
X35484D01*
X32617Y44317D02*
Y44583D01*
X32000Y43700D02*
X32617Y44317D01*
X32100Y45100D02*
X32617Y44583D01*
X29000Y43000D02*
X31300D01*
X28000Y44000D02*
X29000Y43000D01*
X31300D02*
X32000Y43700D01*
X25800Y43500D02*
X27800D01*
X46600Y29700D02*
Y31300D01*
X-11500Y53000D02*
X7500D01*
X9100Y51400D01*
X13500Y50000D02*
Y51213D01*
X9100Y51400D02*
X13313D01*
X13500Y51213D01*
X-11300Y52600D02*
X7200D01*
X11900Y51000D02*
X14400Y48500D01*
X7200Y52600D02*
X8800Y51000D01*
X11900D01*
X55000Y1000D02*
Y11300D01*
X53500Y12800D02*
X55000Y11300D01*
X53200Y17300D02*
X53500Y17000D01*
Y12800D02*
Y17000D01*
X50000Y17300D02*
X53200D01*
X49333Y17967D02*
X50000Y17300D01*
X50894Y17865D02*
X52500D01*
X50183Y18576D02*
X50894Y17865D01*
X49333Y19033D02*
X49800Y19500D01*
X49333Y17967D02*
Y19033D01*
X49600Y23800D02*
X51967Y21433D01*
X49800Y19500D02*
X50660Y20360D01*
X51160D01*
X51967Y21167D01*
Y21433D01*
X46600Y29700D02*
X49600Y26700D01*
Y23800D02*
Y26700D01*
X50000Y24000D02*
X52500Y21500D01*
X50000Y24000D02*
Y27000D01*
X47000Y30000D02*
X50000Y27000D01*
X52500Y17865D02*
Y21500D01*
X21800Y45500D02*
X23800D01*
X25800Y43500D01*
X26000Y44000D02*
X28000D01*
X24000Y46000D02*
X26000Y44000D01*
X22000Y46000D02*
X24000D01*
X17300Y47000D02*
X20300D01*
X21800Y45500D01*
X17500Y47500D02*
X20500D01*
X22000Y46000D01*
X14400Y48500D02*
X15800D01*
X17300Y47000D01*
X16000Y49000D02*
X17500Y47500D01*
X14500Y49000D02*
X16000D01*
X13500Y50000D02*
X14500Y49000D01*
X-14000Y50500D02*
X-11500Y53000D01*
X-17000Y50500D02*
X-14000D01*
X-18024Y49476D02*
X-17000Y50500D01*
X-18024Y46917D02*
Y49476D01*
X-13800Y50100D02*
X-11300Y52600D01*
X-14516Y50100D02*
X-13800D01*
X-17100Y47373D02*
X-16711Y47762D01*
Y47904D01*
X-14516Y50100D01*
X-17100Y47300D02*
Y47373D01*
Y46400D02*
Y47300D01*
X-17500Y46000D02*
X-17100Y46400D01*
X-46000Y23400D02*
X-43567Y25833D01*
X-46000Y20700D02*
Y23400D01*
Y20700D02*
X-44800Y19500D01*
X-46076Y18576D02*
X-45183D01*
X-46500Y19000D02*
X-46076Y18576D01*
X-46500Y23500D02*
X-44000Y26000D01*
X-46500Y19000D02*
Y23500D01*
X52500Y17865D02*
X53448D01*
X54000Y13000D02*
Y17313D01*
X53448Y17865D02*
X54000Y17313D01*
Y13000D02*
X56000Y11000D01*
Y1000D02*
Y11000D01*
G54D13*
X-39996Y32576D02*
D03*
X-50580Y7007D02*
D03*
X35097Y42475D02*
D03*
X9486Y53085D02*
D03*
G54D14*
X50183Y18576D02*
D03*
G54D15*
X49800Y19500D02*
D03*
X49417Y20424D02*
D03*
X31393Y44393D02*
D03*
X30686Y43686D02*
D03*
X-17100Y47300D02*
D03*
X-16176Y47683D02*
D03*
X-44800Y19500D02*
D03*
X-44417Y20424D02*
D03*
X56000Y1000D02*
D03*
X50730Y4198D02*
D03*
X50800Y3200D02*
D03*
X50870Y2202D02*
D03*
G54D16*
X32100Y45100D02*
D03*
G54D17*
X-18024Y46917D02*
D03*
G54D18*
X-45183Y18576D02*
D03*
G54D19*
X55000Y1000D02*
D03*
G54D20*
X50940Y1205D02*
D03*
G54D21*
X33800Y42200D02*
D03*
M02*
